# Aspose.3D Wavefront OBJ Exporter
# Copyright 2004-2024 Aspose Pty Ltd.
# File created: 02/06/2025 22:53:31

mtllib material.lib
g PaperAirplane

#
# object PaperAirplane
#

v 7.5 6.8995824 -8.171694
v 0 3.6213455 7.5805984
v 3.7988577 5.1454797 0.23709297
v -7.5 6.552925 -8.244008
v -3.7988577 4.7988224 0.1647791
v 7.806256E-18 3.572464 7.5704017
v -8.577438E-18 3.5522444 -0.09526147
v -8.311229E-17 3.7694826 -7.1785555
v 0.94205886 6.4405646 -6.621358
v 0.6592126 5.015523 0.20998351
v -0.94205886 6.4405646 -6.621358
v -0.6592126 5.015523 0.20998351
v 7.5 6.91443 -8.168597
v -8.311229E-17 3.9932227 -1.3176645
v 0.5749694 5.5530376 -0.9922817
v 0.51409984 5.290284 0.2672997
v 3.7988577 5.160328 0.2401903
v -0.5749694 5.5530376 -0.9922817
v -0.51409984 5.290284 0.2672997
v 0.9155705 6.455413 -6.6182604
v 0.51409984 5.0303707 0.21308088
v -0.9155705 6.455413 -6.6182604
v -0.51409984 5.0303707 0.21308088
# 23 vertices

vn 0.04223486 -0.982383 -0.18204379
vn 0.032146588 -0.9806575 -0.19307384
vn 0.030683165 -0.9803889 -0.19466959
vn 0.030683165 -0.9803889 -0.19466959
vn 0.032146588 -0.9806575 -0.19307384
vn 0.028582325 -0.9799951 -0.1969585
vn 0.028582325 -0.97999513 -0.1969585
vn 0.92922294 -0.3691894 -0.015613056
vn 0.92988604 -0.36747006 -0.016666282
vn 0.9338681 -0.35686836 -0.023136558
vn 0.93386805 -0.35686833 -0.023136558
vn 0.9163998 -0.40024793 0.0036032214
vn 0.9163998 -0.4002479 0.0036032214
vn 0.92988604 -0.36747006 -0.016666282
vn 0.92922294 -0.3691894 -0.015613056
vn 0.07032637 -0.9789763 -0.19146655
vn 0.051116504 -0.9758986 -0.21215284
vn 0.053562067 -0.97633386 -0.2095313
vn 0.051116504 -0.9758986 -0.21215284
vn 0.04762354 -0.9752553 -0.21589115
vn 0.04762354 -0.97525537 -0.21589115
vn 0.053562067 -0.97633386 -0.2095313
vn -0.92922294 -0.3691894 -0.015613056
vn -0.93386805 -0.35686833 -0.023136558
vn -0.9338681 -0.35686836 -0.023136558
vn -0.92988604 -0.36747006 -0.016666282
vn -0.9163998 -0.40024793 0.0036032214
vn -0.92922294 -0.3691894 -0.015613056
vn -0.92988604 -0.36747006 -0.016666282
vn -0.9163998 -0.4002479 0.0036032214
vn 0.040372778 0.9735216 0.22500142
vn 0.03698681 0.9749208 0.21945654
vn 0.03767085 0.9746418 0.2205773
vn 0.03698681 0.9749208 0.21945654
vn 0.03571812 0.9754339 0.21737711
vn 0.03571812 0.97543395 0.21737711
vn 0.03767085 0.9746418 0.2205773
vn -0.95898676 0.28312734 0.013542863
vn -0.9515146 0.30127266 0.06208628
vn -0.9515146 0.30127263 0.062086277
vn -0.95896494 0.28319278 0.013714376
vn -0.9608766 0.27696568 -0.0024933524
vn -0.95898676 0.28312734 0.013542863
vn -0.95896494 0.28319278 0.013714376
vn -0.9608766 0.27696568 -0.0024933526
vn -0.15102226 0.9613981 0.23001306
vn -0.14102425 0.9597713 0.242799
vn -0.13849941 0.95932114 0.24601012
vn -0.13849941 0.95932114 0.24601012
vn -0.14102425 0.9597713 0.242799
vn -0.13378307 0.95843804 0.2519894
vn -0.13378307 0.958438 0.25198933
vn 0.95898676 0.28312734 0.013542866
vn 0.95896494 0.28319278 0.01371438
vn 0.9515146 0.30127263 0.06208629
vn 0.9515146 0.30127266 0.062086295
vn 0.9608766 0.27696568 -0.0024933524
vn 0.9608766 0.27696568 -0.0024933526
vn 0.95896494 0.28319278 0.01371438
vn 0.95898676 0.28312734 0.013542866
vn -0.040374797 0.98191404 0.184972
vn -0.030034143 0.9803429 0.19500203
vn -0.031370472 0.98055744 0.19370848
vn -0.030034143 0.9803429 0.19500203
vn -0.028100513 0.9800264 0.19687237
vn -0.02810051 0.98002636 0.19687234
vn -0.031370472 0.98055744 0.19370848
vn -0.9467676 0.32184267 0.006965442
vn -0.94644046 0.3226984 0.010779512
vn -0.9464405 0.3226984 0.010779514
vn -0.9467196 0.32197103 0.007536313
vn -0.94754434 0.31961128 -0.0028772645
vn -0.9467676 0.32184267 0.006965442
vn -0.9467196 0.32197103 0.007536313
vn -0.94754434 0.3196113 -0.0028772647
vn -0.07181824 0.9787261 0.19219102
vn -0.055840235 0.9760433 0.21028836
vn -0.053456105 0.97559434 0.21297494
vn -0.053456105 0.97559434 0.21297494
vn -0.055840235 0.9760433 0.21028836
vn -0.05002171 0.97492504 0.21683866
vn -0.050021715 0.974925 0.21683866
vn 0.9467676 0.32184267 0.006965442
vn 0.9467196 0.32197103 0.007536313
vn 0.9464405 0.3226984 0.010779514
vn 0.94644046 0.3226984 0.010779512
vn 0.94754434 0.31961128 -0.0028772645
vn 0.94754434 0.3196113 -0.0028772647
vn 0.9467196 0.32197103 0.007536313
vn 0.9467676 0.32184267 0.006965442
# 90 vertex normals

vt 0 0.35526904 0
vt 0.5 0.17763452 0
vt 0.5 0.35526904 0
vt 1 0 0
vt 1 0.35526904 0
vt 1 0.5 0
vt 0.5 0.5 0
vt 0 0.5 0
vt 0 0.35526904 0
vt 0.5 0.35526904 0
vt 0.5 0.17763452 0
vt 1 0.35526904 0
vt 1 0 0
vt 0.5 0.5 0
vt 1 0.5 0
vt 0 0.5 0
vt 0 0.35526904 0
vt 0.5 0.17763452 0
vt 0.5 0.35526904 0
vt 1 0 0
vt 1 0.35526904 0
vt 1 0.5 0
vt 0.5 0.5 0
vt 0 0.5 0
vt 0 0.35526904 0
vt 0.5 0.35526904 0
vt 0.5 0.17763452 0
vt 1 0.35526904 0
vt 1 0 0
vt 0.5 0.5 0
vt 1 0.5 0
vt 0 0.5 0
vt 0 0.35526904 0
vt 0.5 0.17763452 0
vt 0.5 0.35526904 0
vt 1 0 0
vt 1 0.35526904 0
vt 1 0.5 0
vt 0.5 0.5 0
vt 0 0.5 0
vt 0 0.35526904 0
vt 0.5 0.35526904 0
vt 0.5 0.17763452 0
vt 1 0.35526904 0
vt 1 0 0
vt 0.5 0.5 0
vt 1 0.5 0
vt 0 0.5 0
# 48 texture coords

usemtl blinn2
s 1
f 2/1/1 10/3/2 3/2/3
f 3/2/4 10/3/5 9/5/6 1/4/7
f 10/3/8 7/7/9 8/6/10 9/5/11
f 2/1/12 6/8/13 7/7/14 10/3/15
f 2/9/16 5/11/17 12/10/18
f 5/11/19 4/13/20 11/12/21 12/10/22
f 12/10/23 11/12/24 8/15/25 7/14/26
f 2/9/27 12/10/28 7/14/29 6/16/30
f 2/17/31 17/18/32 16/19/33
f 17/18/34 13/20/35 15/21/36 16/19/37
f 16/19/38 15/21/39 14/22/40 7/23/41
f 2/17/42 16/19/43 7/23/44 6/24/45
f 2/25/46 19/26/47 5/27/48
f 5/27/49 19/26/50 18/28/51 4/29/52
f 19/26/53 7/30/54 14/31/55 18/28/56
f 2/25/57 6/32/58 7/30/59 19/26/60
#24 polygons

usemtl lambert2
s 2
f 2/33/61 17/34/62 21/35/63
f 17/34/64 13/36/65 20/37/66 21/35/67
f 21/35/68 20/37/69 8/38/70 7/39/71
f 2/33/72 21/35/73 7/39/74 6/40/75
f 2/41/76 23/42/77 5/43/78
f 5/43/79 23/42/80 22/44/81 4/45/82
f 23/42/83 7/46/84 8/47/85 22/44/86
f 2/41/87 6/48/88 7/46/89 23/42/90
#24 polygons

