# Blender 4.3.2
# www.blender.org
mtllib rock_small_4.mtl
g SmallRiverRock_04_SmallRiverRock_04
v 0.645822 0.061023 -0.998945
v 0.605945 0.058124 -1.034031
v 0.606450 0.025229 -1.070029
v 0.599576 0.047151 -1.058799
v 0.639379 0.023950 -1.031336
v 0.628285 0.046978 -1.018886
v 0.627786 0.015143 -1.058707
v 0.613328 0.032168 -1.042706
v 0.686505 0.029173 -1.000331
v 0.673473 0.049990 -0.992139
v 0.712612 0.027646 -0.997887
v 0.710679 0.050606 -0.983109
v 0.672805 0.018911 -1.020603
v 0.659025 0.035722 -1.006828
v 0.669570 0.001983 -1.059312
v 0.710679 0.014082 -1.021571
v 0.710789 -0.001314 -1.059822
v 0.645328 0.088202 -0.996989
v 0.648431 0.108644 -1.001242
v 0.605346 0.087710 -1.033509
v 0.610603 0.108586 -1.037259
v 0.599286 0.086511 -1.061045
v 0.608389 0.110556 -1.060179
v 0.625291 0.087129 -1.014264
v 0.633922 0.115957 -1.023431
v 0.631592 0.126033 -1.059680
v 0.671894 0.087070 -0.986652
v 0.672017 0.113624 -0.995832
v 0.710323 0.087636 -0.976844
v 0.710323 0.116535 -0.990783
v 0.670180 0.130985 -1.021120
v 0.671783 0.143521 -1.058289
v 0.710250 0.134631 -1.020111
v 0.708633 0.145265 -1.058289
v 0.684472 0.149908 -1.068077
v 0.696325 0.149957 -1.068077
v 0.606159 0.023789 -1.099912
v 0.598206 0.049909 -1.098974
v 0.609317 0.026635 -1.125061
v 0.604606 0.049103 -1.129548
v 0.630304 0.007619 -1.099978
v 0.629876 0.016078 -1.139141
v 0.618482 0.049577 -1.150178
v 0.642254 0.022379 -1.168025
v 0.637485 0.048733 -1.173993
v 0.684250 -0.012772 -1.110884
v 0.684250 -0.012338 -1.125329
v 0.701521 -0.013016 -1.110884
v 0.701521 -0.012633 -1.125329
v 0.671362 -0.007709 -1.100182
v 0.671249 -0.004084 -1.138202
v 0.711825 -0.009842 -1.100182
v 0.711825 -0.006751 -1.138470
v 0.671077 0.015776 -1.174471
v 0.670113 0.049401 -1.187355
v 0.710789 0.014600 -1.176062
v 0.710323 0.048889 -1.191398
v 0.602032 0.088307 -1.098124
v 0.609594 0.108890 -1.085000
v 0.607333 0.077537 -1.127918
v 0.615266 0.103082 -1.112719
v 0.629627 0.120128 -1.098024
v 0.626257 0.090942 -1.143915
v 0.640048 0.113209 -1.130816
v 0.640370 0.079093 -1.168456
v 0.671475 0.138970 -1.097114
v 0.653722 0.104624 -1.157228
v 0.669578 0.120317 -1.141689
v 0.708633 0.142155 -1.097049
v 0.710064 0.125825 -1.139545
v 0.684472 0.149015 -1.082794
v 0.696325 0.149403 -1.082794
v 0.669293 0.089713 -1.175127
v 0.681446 0.109885 -1.163484
v 0.710137 0.087263 -1.181217
v 0.711709 0.111226 -1.164982
v 0.749365 0.027694 -0.997423
v 0.751049 0.050212 -0.981750
v 0.778336 0.028725 -0.999096
v 0.790891 0.047747 -0.989699
v 0.751049 0.014989 -1.021248
v 0.751032 0.001334 -1.060125
v 0.791858 0.019852 -1.018985
v 0.805669 0.032852 -1.002864
v 0.791758 0.007547 -1.059735
v 0.818130 0.056469 -0.995274
v 0.830100 0.025409 -1.030940
v 0.831800 0.047441 -1.012751
v 0.830386 0.018032 -1.061420
v 0.850417 0.030316 -1.040112
v 0.854448 0.048999 -1.034089
v 0.852469 0.028526 -1.060784
v 0.861331 0.049843 -1.061742
v 0.751277 0.087792 -0.976099
v 0.749744 0.115108 -0.990477
v 0.792225 0.089323 -0.987297
v 0.780457 0.111338 -0.994830
v 0.751277 0.129348 -1.020311
v 0.750959 0.136844 -1.059648
v 0.807906 0.104083 -1.004194
v 0.792194 0.118765 -1.018943
v 0.791371 0.126566 -1.059842
v 0.818549 0.080081 -0.995749
v 0.832940 0.090279 -1.018869
v 0.819585 0.111388 -1.030259
v 0.845550 0.102599 -1.059778
v 0.824817 0.115979 -1.061349
v 0.854550 0.076486 -1.033880
v 0.860381 0.082088 -1.061599
v 0.751497 -0.004926 -1.100531
v 0.751497 -0.000641 -1.140749
v 0.792065 0.004397 -1.100768
v 0.790645 0.009075 -1.140282
v 0.751032 0.017294 -1.174482
v 0.751032 0.049245 -1.188855
v 0.789738 0.022270 -1.169843
v 0.790599 0.050222 -1.181030
v 0.832768 0.019513 -1.100402
v 0.848789 0.033261 -1.114255
v 0.822815 0.022933 -1.139805
v 0.841580 0.047612 -1.142463
v 0.852308 0.028751 -1.086660
v 0.860112 0.047459 -1.099501
v 0.857089 0.056778 -1.129122
v 0.814785 0.027621 -1.163742
v 0.821529 0.048962 -1.168200
v 0.750959 0.134445 -1.100500
v 0.750950 0.122995 -1.139646
v 0.791113 0.125272 -1.101052
v 0.805149 0.103446 -1.155953
v 0.790089 0.115981 -1.141123
v 0.750950 0.087104 -1.179683
v 0.749199 0.110417 -1.164192
v 0.790311 0.089178 -1.172137
v 0.777409 0.108485 -1.162005
v 0.846142 0.103119 -1.101301
v 0.825179 0.115621 -1.099502
v 0.834791 0.090644 -1.142266
v 0.819894 0.110521 -1.130349
v 0.860679 0.082418 -1.099643
v 0.855883 0.078885 -1.129376
v 0.820318 0.078604 -1.165899
vn -0.3760 -0.7578 0.5332
vn -0.5853 -0.4122 0.6983
vn -0.6495 -0.5797 0.4920
vn -0.4577 -0.8329 0.3111
vn -0.7689 -0.6209 0.1528
vn -0.9412 -0.2555 0.2211
vn -0.8268 -0.1745 0.5347
vn -0.1913 -0.6872 0.7009
vn -0.0678 -0.7215 0.6891
vn -0.1152 -0.3460 0.9311
vn -0.2979 -0.3728 0.8788
vn -0.2288 -0.8191 0.5261
vn -0.1898 -0.9359 0.2968
vn -0.0041 -0.9584 0.2854
vn -0.0353 -0.9014 0.4316
vn -0.3842 -0.5908 0.7095
vn -0.4949 -0.2402 0.8351
vn -0.8485 0.1520 0.5069
vn -0.7216 0.5692 0.3941
vn -0.7718 0.6333 0.0575
vn -0.9813 0.1759 0.0780
vn -0.6689 0.1229 0.7332
vn -0.5255 0.6896 0.4983
vn -0.4574 0.8865 0.0698
vn -0.2716 0.0954 0.9577
vn -0.1184 0.1331 0.9840
vn -0.0610 0.6672 0.7423
vn -0.2419 0.6065 0.7574
vn 0.0154 0.9215 0.3880
vn 0.1302 0.9778 0.1642
vn -0.3036 0.9390 0.1615
vn -0.2320 0.8810 0.4124
vn -0.5223 0.1073 0.8460
vn -0.4600 0.5162 0.7224
vn 0.1432 0.9753 0.1684
vn -0.2173 0.9624 0.1627
vn -0.7936 -0.6054 -0.0613
vn -0.9905 -0.0985 -0.0960
vn -0.8974 -0.0936 -0.4312
vn -0.7758 -0.5347 -0.3350
vn -0.7946 -0.0807 -0.6017
vn -0.5827 -0.7191 -0.3787
vn -0.4423 -0.8968 -0.0067
vn -0.1886 -0.9758 0.1110
vn -0.1983 -0.9556 -0.2181
vn 0.1406 -0.9681 -0.2076
vn 0.1364 -0.9849 0.1063
vn -0.2167 -0.0453 -0.9752
vn -0.0192 -0.0740 -0.9971
vn 0.0069 -0.6728 -0.7398
vn -0.2082 -0.6533 -0.7279
vn -0.2656 -0.9057 -0.3304
vn -0.2660 -0.9592 0.0960
vn -0.6059 -0.0616 -0.7932
vn -0.5211 -0.5592 -0.6448
vn 0.0825 -0.9355 -0.3437
vn 0.0890 -0.9891 0.1172
vn -0.7039 0.6098 -0.3643
vn -0.5212 0.8180 -0.2434
vn -0.4752 0.7795 -0.4081
vn -0.6746 0.4908 -0.5513
vn -0.7629 0.6303 -0.1441
vn -0.9285 0.3200 -0.1887
vn -0.8664 0.2658 -0.4227
vn 0.0921 0.9576 -0.2731
vn -0.0055 0.9109 -0.4126
vn -0.2554 0.8488 -0.4630
vn -0.2878 0.9139 -0.2863
vn -0.1500 0.7268 -0.6702
vn -0.0192 0.7361 -0.6766
vn -0.0294 0.4066 -0.9131
vn -0.2578 0.4634 -0.8478
vn -0.4194 0.6717 -0.6106
vn -0.2401 0.9393 -0.2451
vn 0.1454 0.9613 -0.2341
vn -0.5580 0.3486 -0.7531
vn 0.0392 -0.7358 0.6760
vn 0.1252 -0.7296 0.6723
vn 0.2508 -0.3696 0.8947
vn 0.0764 -0.3408 0.9370
vn 0.0605 -0.9142 0.4006
vn 0.1106 -0.9646 0.2394
vn 0.2138 -0.9600 0.1809
vn 0.2110 -0.8675 0.4504
vn 0.7215 -0.6860 0.0940
vn 0.9809 -0.1692 0.0958
vn 0.8338 -0.1948 0.5165
vn 0.6746 -0.6388 0.3700
vn 0.4086 -0.7966 0.4454
vn 0.6220 -0.3282 0.7110
vn 0.3377 -0.9342 0.1146
vn 0.3565 -0.6461 0.6748
vn 0.5368 -0.1830 0.8236
vn 0.1050 0.1590 0.9817
vn 0.3312 0.2818 0.9005
vn 0.2697 0.6981 0.6632
vn 0.1184 0.6990 0.7053
vn 0.3317 0.8706 0.3634
vn 0.2701 0.9599 0.0750
vn 0.2066 0.9758 0.0713
vn 0.1705 0.9312 0.3222
vn 0.6861 0.7047 0.1811
vn 0.4475 0.8860 0.1216
vn 0.4873 0.8132 0.3183
vn 0.6886 0.4566 0.5633
vn 0.8317 0.2555 0.4930
vn 0.9325 0.3291 0.1487
vn 0.4886 0.6374 0.5958
vn 0.5781 0.1881 0.7940
vn 0.1625 -0.9865 0.0227
vn 0.1648 -0.9429 -0.2895
vn 0.2832 -0.9220 -0.2641
vn 0.2751 -0.9610 -0.0292
vn 0.1202 -0.0861 -0.9890
vn 0.2573 -0.0807 -0.9629
vn 0.2699 -0.6645 -0.6968
vn 0.1365 -0.6743 -0.7257
vn 0.5343 -0.7769 -0.3331
vn 0.7670 -0.3095 -0.5621
vn 0.7091 -0.6370 -0.3023
vn 0.4857 -0.8644 -0.1299
vn 0.9411 -0.3078 -0.1400
vn 0.7206 -0.6899 -0.0689
vn 0.8669 -0.1652 -0.4704
vn 0.6067 -0.1449 -0.7816
vn 0.4923 -0.6142 -0.6167
vn 0.2440 0.9604 -0.1349
vn 0.2547 0.8820 -0.3965
vn 0.1173 0.9216 -0.3699
vn 0.1776 0.9684 -0.1749
vn 0.0801 0.7411 -0.6666
vn 0.1710 0.7413 -0.6490
vn 0.2725 0.4428 -0.8542
vn 0.0969 0.3934 -0.9142
vn 0.6456 0.5111 -0.5674
vn 0.4261 0.8395 -0.3371
vn 0.4248 0.8954 -0.1338
vn 0.6702 0.7254 -0.1570
vn 0.9353 0.3357 -0.1117
vn 0.8276 0.2890 -0.4812
vn 0.3922 0.6936 -0.6042
vn 0.5580 0.2930 -0.7764
vt 0.898147 0.387459
vt 0.924961 0.360372
vt 0.931071 0.402598
vt 0.905715 0.420955
vt 0.931800 0.436305
vt 0.959831 0.419106
vt 0.962399 0.380302
vt 0.837550 0.343927
vt 0.813019 0.344153
vt 0.812201 0.317205
vt 0.857975 0.316660
vt 0.855767 0.369358
vt 0.853145 0.421853
vt 0.809202 0.418326
vt 0.812815 0.371235
vt 0.874022 0.343636
vt 0.881457 0.283255
vt 0.923154 0.281874
vt 0.889005 0.325077
vt 0.902970 0.222966
vt 0.886852 0.212125
vt 0.889468 0.193477
vt 0.912575 0.196521
vt 0.885894 0.244923
vt 0.866248 0.224124
vt 0.866696 0.191838
vt 0.843798 0.271105
vt 0.807118 0.279315
vt 0.805076 0.252719
vt 0.837425 0.248086
vt 0.803092 0.225019
vt 0.801439 0.195681
vt 0.830898 0.194065
vt 0.834504 0.223633
vt 0.866475 0.259244
vt 0.855018 0.244666
vt 0.811675 0.186565
vt 0.819582 0.186216
vt 0.928334 0.473769
vt 0.963889 0.479255
vt 0.948424 0.521706
vt 0.924006 0.502941
vt 0.931907 0.549077
vt 0.894324 0.515905
vt 0.893990 0.470339
vt 0.832016 0.474678
vt 0.830602 0.489922
vt 0.810619 0.488142
vt 0.812003 0.472862
vt 0.849476 0.601588
vt 0.793099 0.603049
vt 0.796876 0.553138
vt 0.843273 0.553090
vt 0.843966 0.507013
vt 0.847720 0.463559
vt 0.899550 0.579108
vt 0.876813 0.550001
vt 0.797368 0.502976
vt 0.801401 0.459219
vt 0.890688 0.146502
vt 0.871842 0.158856
vt 0.862584 0.127382
vt 0.885535 0.108335
vt 0.891038 0.172616
vt 0.910538 0.157145
vt 0.915231 0.120752
vt 0.799123 0.162635
vt 0.796292 0.121935
vt 0.835610 0.117201
vt 0.831063 0.161106
vt 0.824262 0.095446
vt 0.795042 0.094651
vt 0.794551 0.063910
vt 0.840179 0.074359
vt 0.851122 0.099809
vt 0.819125 0.174679
vt 0.811049 0.175150
vt 0.875853 0.075214
vt 0.772045 0.342996
vt 0.744932 0.340916
vt 0.733628 0.319651
vt 0.773399 0.316730
vt 0.770066 0.368710
vt 0.766064 0.413791
vt 0.722545 0.407611
vt 0.728372 0.358955
vt 0.649702 0.392629
vt 0.620672 0.383004
vt 0.640971 0.349191
vt 0.656737 0.370853
vt 0.681202 0.363671
vt 0.678395 0.327482
vt 0.676389 0.398649
vt 0.717337 0.337671
vt 0.701602 0.303004
vt 0.774750 0.280772
vt 0.738543 0.275043
vt 0.749884 0.256506
vt 0.774114 0.255614
vt 0.736865 0.238245
vt 0.733323 0.201665
vt 0.767822 0.196411
vt 0.771463 0.229250
vt 0.681154 0.212490
vt 0.701460 0.207851
vt 0.711914 0.233445
vt 0.695816 0.254018
vt 0.665677 0.248291
vt 0.658235 0.219458
vt 0.725906 0.255304
vt 0.710631 0.278819
vt 0.761811 0.457717
vt 0.756661 0.501951
vt 0.709650 0.497820
vt 0.716314 0.452143
vt 0.739057 0.592478
vt 0.686374 0.571910
vt 0.702417 0.535353
vt 0.749465 0.547688
vt 0.668453 0.495048
vt 0.628129 0.500551
vt 0.639168 0.456392
vt 0.663677 0.443748
vt 0.614643 0.437563
vt 0.642618 0.422917
vt 0.603469 0.483261
vt 0.648357 0.540597
vt 0.675068 0.524805
vt 0.727439 0.166909
vt 0.720159 0.127595
vt 0.758449 0.124515
vt 0.763674 0.162484
vt 0.754719 0.099341
vt 0.729365 0.105088
vt 0.708308 0.089107
vt 0.749048 0.069873
vt 0.669803 0.129616
vt 0.694161 0.144206
vt 0.694112 0.172619
vt 0.673856 0.176077
vt 0.649086 0.179624
vt 0.644921 0.147177
vt 0.703694 0.114624
vt 0.671862 0.097800
vt 0.937893 0.241802
vt 0.963105 0.212041
vt 0.963889 0.149088
vt 0.949230 0.103874
vt 0.933234 0.074857
vt 0.794332 0.010616
vt 0.851499 0.015809
vt 0.901112 0.042552
vt 0.616650 0.236785
vt 0.638570 0.269786
vt 0.668625 0.303524
vt 0.681866 0.037762
vt 0.737734 0.016747
vt 0.618800 0.140220
vt 0.602364 0.183712
vt 0.612706 0.109603
vt 0.642797 0.071620
s 1
usemtl SmallRiverRocks
f 5/1/1 6/2/2 8/3/3 7/4/4
f 3/5/5 7/4/4 8/3/3 4/6/6
f 2/7/7 4/6/6 8/3/3 6/2/2
f 9/8/8 11/9/9 12/10/10 10/11/11
f 13/12/12 15/13/13 17/14/14 16/15/15
f 5/1/1 13/12/12 14/16/16 6/2/2
f 5/1/1 7/4/4 15/13/13 13/12/12
f 9/8/8 10/11/11 14/16/16 13/12/12
f 9/8/8 13/12/12 16/15/15 11/9/9
f 1/17/17 6/18/2 14/19/16 10/11/11
f 20/20/18 21/21/19 23/22/20 22/23/21
f 20/20/18 24/24/22 25/25/23 21/21/19
f 25/25/23 26/26/24 23/22/20 21/21/19
f 27/27/25 29/28/26 30/29/27 28/30/28
f 33/31/29 34/32/30 32/33/31 31/34/32
f 18/35/33 27/27/25 28/30/28 19/36/34
f 31/34/32 32/33/31 26/26/24 25/25/23
f 18/35/33 19/36/34 25/25/23 24/24/22
f 30/29/27 33/31/29 31/34/32 28/30/28
f 32/33/31 34/32/30 36/37/35 35/38/36
f 28/30/28 31/34/32 25/25/23 19/36/34
f 37/39/37 38/40/38 40/41/39 39/42/40
f 40/41/39 43/43/41 42/44/42 39/42/40
f 37/39/37 39/42/40 42/44/42 41/45/43
f 46/46/44 47/47/45 49/48/46 48/49/47
f 55/50/48 57/51/49 56/52/50 54/53/51
f 41/45/43 42/44/42 51/54/52 50/55/53
f 45/56/54 55/50/48 54/53/51 44/57/55
f 42/44/42 43/43/41 45/56/54 44/57/55
f 51/54/52 54/53/51 56/52/50 53/58/56
f 46/46/44 50/55/53 51/54/52 47/47/45
f 49/48/46 53/58/56 52/59/57 48/49/47
f 46/46/44 48/49/47 52/59/57 50/55/53
f 51/54/52 53/58/56 49/48/46 47/47/45
f 42/44/42 44/57/55 54/53/51 51/54/52
f 61/60/58 62/61/59 64/62/60 63/63/61
f 59/64/62 62/61/59 61/60/58 58/65/63
f 61/60/58 63/63/61 60/66/64 58/65/63
f 69/67/65 70/68/66 68/69/67 66/70/68
f 74/71/69 76/72/70 75/73/71 73/74/72
f 64/62/60 68/69/67 67/75/73 63/63/61
f 66/70/68 68/69/67 64/62/60 62/61/59
f 67/75/73 68/69/67 74/71/69 73/74/72
f 70/68/66 76/72/70 74/71/69 68/69/67
f 71/76/74 72/77/75 69/67/65 66/70/68
f 67/75/73 73/74/72 65/78/76 63/63/61
f 77/79/77 79/80/78 80/81/79 78/82/80
f 81/83/81 82/84/82 85/85/83 83/86/84
f 92/87/85 93/88/86 91/89/87 90/90/88
f 87/91/89 90/90/88 91/89/87 88/92/90
f 87/91/89 89/93/91 92/87/85 90/90/88
f 83/86/84 87/91/89 88/92/90 84/94/92
f 83/86/84 85/85/83 89/93/91 87/91/89
f 83/86/84 84/94/92 80/81/79 79/80/78
f 77/79/77 81/83/81 83/86/84 79/80/78
f 80/81/79 84/94/92 88/92/90 86/95/93
f 94/96/94 96/97/95 97/98/96 95/99/97
f 101/100/98 102/101/99 99/102/100 98/103/101
f 106/104/102 107/105/103 105/106/104 104/107/105
f 108/108/106 109/109/107 106/104/102 104/107/105
f 100/110/108 104/107/105 105/106/104 101/100/98
f 105/106/104 107/105/103 102/101/99 101/100/98
f 100/110/108 101/100/98 97/98/96 96/97/95
f 97/98/96 101/100/98 98/103/101 95/99/97
f 103/111/109 104/107/105 100/110/108 96/97/95
f 110/112/110 111/113/111 113/114/112 112/115/113
f 115/116/114 117/117/115 116/118/116 114/119/117
f 120/120/118 121/121/119 119/122/120 118/123/121
f 119/122/120 123/124/122 122/125/123 118/123/121
f 119/122/120 121/121/119 124/126/124 123/124/122
f 112/115/113 113/114/112 120/120/118 118/123/121
f 117/117/115 126/127/125 125/128/126 116/118/116
f 111/113/111 114/119/117 116/118/116 113/114/112
f 125/128/126 126/127/125 121/121/119 120/120/118
f 113/114/112 116/118/116 125/128/126 120/120/118
f 129/129/127 131/130/128 128/131/129 127/132/130
f 133/133/131 135/134/132 134/135/133 132/136/134
f 138/137/135 139/138/136 137/139/137 136/140/138
f 140/141/139 141/142/140 138/137/135 136/140/138
f 131/130/128 139/138/136 138/137/135 130/143/141
f 137/139/137 139/138/136 131/130/128 129/129/127
f 134/135/133 135/134/132 131/130/128 130/143/141
f 131/130/128 135/134/132 133/133/131 128/131/129
f 138/137/135 142/144/142 134/135/133 130/143/141
f 11/9/9 77/79/77 78/82/80 12/10/10
f 16/15/15 17/14/14 82/84/82 81/83/81
f 11/9/9 16/15/15 81/83/81 77/79/77
f 29/28/26 94/96/94 95/99/97 30/29/27
f 98/103/101 99/102/100 34/32/30 33/31/29
f 95/99/97 98/103/101 33/31/29 30/29/27
f 52/59/57 53/58/56 111/113/111 110/112/110
f 57/51/49 115/116/114 114/119/117 56/52/50
f 53/58/56 56/52/50 114/119/117 111/113/111
f 127/132/130 128/131/129 70/68/66 69/67/65
f 76/72/70 133/133/131 132/136/134 75/73/71
f 128/131/129 133/133/131 76/72/70 70/68/66
f 3/5/5 4/6/6 38/40/38 37/39/37
f 3/5/5 37/39/37 41/45/43 7/4/4
f 15/13/13 50/55/53 52/59/57 17/14/14
f 7/4/4 41/45/43 50/55/53 15/13/13
f 82/84/82 110/112/110 112/115/113 85/85/83
f 122/125/123 123/124/122 93/88/86 92/87/85
f 89/93/91 118/123/121 122/125/123 92/87/85
f 85/85/83 112/115/113 118/123/121 89/93/91
f 22/23/21 23/22/20 59/64/62 58/65/63
f 26/26/24 62/61/59 59/64/62 23/22/20
f 36/37/35 72/77/75 71/76/74 35/38/36
f 32/33/31 35/38/36 71/76/74 66/70/68
f 69/67/65 72/77/75 36/37/35 34/32/30
f 32/33/31 66/70/68 62/61/59 26/26/24
f 102/101/99 129/129/127 127/132/130 99/102/100
f 136/140/138 137/139/137 107/105/103 106/104/102
f 109/109/107 140/141/139 136/140/138 106/104/102
f 107/105/103 137/139/137 129/129/127 102/101/99
f 2/145/7 20/20/18 22/23/21 4/146/6
f 2/145/7 6/18/2 24/24/22 20/20/18
f 10/11/11 12/10/10 29/28/26 27/27/25
f 1/17/17 18/35/33 24/24/22 6/18/2
f 1/17/17 10/11/11 27/27/25 18/35/33
f 38/147/38 58/65/63 60/66/64 40/148/39
f 60/66/64 63/63/61 43/149/41 40/148/39
f 73/74/72 75/73/71 57/150/49 55/151/48
f 43/149/41 63/63/61 65/78/76 45/152/54
f 65/78/76 73/74/72 55/151/48 45/152/54
f 78/82/80 80/81/79 96/97/95 94/96/94
f 93/153/86 109/109/107 108/108/106 91/154/87
f 88/155/90 91/154/87 108/108/106 104/107/105
f 88/155/90 104/107/105 103/111/109 86/95/93
f 80/81/79 86/95/93 103/111/109 96/97/95
f 132/136/134 134/135/133 117/156/115 115/157/114
f 124/158/124 141/142/140 140/141/139 123/159/122
f 138/137/135 141/142/140 124/158/124 121/160/119
f 126/161/125 142/144/142 138/137/135 121/160/119
f 134/135/133 142/144/142 126/161/125 117/156/115
f 4/146/6 22/23/21 58/65/63 38/147/38
f 123/159/122 140/141/139 109/109/107 93/153/86
f 12/10/10 78/82/80 94/96/94 29/28/26
f 75/73/71 132/136/134 115/157/114 57/150/49
f 17/14/14 52/59/57 110/112/110 82/84/82
f 99/102/100 127/132/130 69/67/65 34/32/30
