# Blender 4.3.2
# www.blender.org
mtllib rock_small_1.mtl
g SmallRiverRock_01_SmallRiverRock_01
v -0.438940 0.055267 -0.235253
v -0.445860 0.046672 -0.257708
v -0.403339 0.012452 -0.231248
v -0.417323 0.039762 -0.224689
v -0.410997 0.004022 -0.257476
v -0.432316 0.024902 -0.254342
v -0.364117 0.046756 -0.185428
v -0.321392 0.010745 -0.188586
v -0.333410 0.035573 -0.177385
v -0.355816 -0.027985 -0.271505
v -0.331086 -0.030487 -0.265066
v -0.374702 0.003961 -0.222245
v -0.380089 0.034682 -0.200802
v -0.372063 -0.016291 -0.258141
v -0.335272 -0.003238 -0.210396
v -0.350599 0.018620 -0.193775
v -0.335373 -0.023230 -0.242376
v -0.440530 0.078979 -0.233255
v -0.439008 0.100338 -0.235037
v -0.450329 0.078221 -0.258096
v -0.443333 0.105148 -0.258121
v -0.419202 0.078005 -0.215835
v -0.417498 0.109517 -0.225660
v -0.419607 0.124026 -0.256928
v -0.368151 0.078811 -0.180498
v -0.364372 0.108393 -0.185958
v -0.332754 0.079032 -0.164699
v -0.332053 0.114690 -0.175907
v -0.390785 0.079054 -0.196983
v -0.378995 0.123278 -0.212086
v -0.391527 0.138518 -0.255255
v -0.333667 0.135644 -0.202147
v -0.362403 0.142408 -0.228772
v -0.367896 0.146180 -0.257492
v -0.331647 0.145310 -0.225312
v -0.332593 0.148129 -0.256956
v -0.440257 0.014809 -0.305824
v -0.449330 0.034493 -0.295442
v -0.439642 0.015727 -0.326486
v -0.448063 0.035960 -0.338779
v -0.421005 0.002710 -0.295524
v -0.438709 0.016921 -0.279998
v -0.419446 0.006163 -0.338581
v -0.434138 0.021323 -0.354373
v -0.443208 0.047959 -0.371390
v -0.407585 0.012343 -0.370336
v -0.420601 0.035418 -0.386214
v -0.406177 0.050242 -0.406655
v -0.355816 -0.028682 -0.287240
v -0.330841 -0.030712 -0.291207
v -0.373146 -0.019538 -0.299311
v -0.376330 -0.008407 -0.340810
v -0.332895 -0.025594 -0.313407
v -0.333273 -0.012561 -0.342682
v -0.375051 0.006491 -0.374509
v -0.376522 0.026083 -0.396115
v -0.376321 0.046896 -0.409372
v -0.332884 0.007256 -0.373341
v -0.331605 0.036637 -0.396730
v -0.346447 0.050727 -0.407648
v -0.456705 0.076914 -0.298304
v -0.446669 0.107752 -0.298772
v -0.454821 0.076990 -0.340755
v -0.445693 0.106291 -0.340244
v -0.419882 0.127779 -0.298772
v -0.417680 0.123348 -0.341758
v -0.446542 0.078173 -0.374540
v -0.441566 0.101616 -0.369756
v -0.428332 0.077131 -0.394620
v -0.416840 0.107803 -0.383258
v -0.407666 0.078057 -0.408720
v -0.402454 0.099592 -0.404461
v -0.390328 0.140675 -0.298506
v -0.376268 0.136277 -0.339656
v -0.333680 0.136680 -0.347772
v -0.366886 0.145728 -0.296528
v -0.360552 0.143836 -0.322727
v -0.332422 0.147275 -0.296507
v -0.333225 0.144447 -0.324528
v -0.376725 0.117400 -0.382751
v -0.376711 0.077533 -0.410769
v -0.376957 0.101199 -0.405373
v -0.324158 0.077940 -0.401366
v -0.336005 0.112682 -0.386316
v -0.346700 0.077979 -0.408512
v -0.353046 0.099875 -0.404274
v -0.274927 0.057397 -0.148909
v -0.288712 0.007230 -0.184666
v -0.288771 0.041123 -0.161699
v -0.255773 0.057113 -0.148341
v -0.247667 0.006337 -0.183281
v -0.243872 0.040803 -0.160325
v -0.280516 -0.028009 -0.233041
v -0.292761 -0.031136 -0.254073
v -0.261865 -0.027922 -0.233628
v -0.260129 -0.030182 -0.255925
v -0.291965 -0.016585 -0.215507
v -0.306738 -0.026986 -0.236127
v -0.247528 -0.016543 -0.217371
v -0.237375 -0.023810 -0.256040
v -0.214339 0.009850 -0.186914
v -0.202527 0.035045 -0.178336
v -0.182719 0.043913 -0.190000
v -0.202656 -0.000593 -0.211635
v -0.187746 0.018991 -0.195660
v -0.203191 -0.009379 -0.255477
v -0.179594 0.010175 -0.223108
v -0.174901 0.034701 -0.211921
v -0.177058 0.007884 -0.255427
v -0.167405 0.036669 -0.255477
v -0.282784 0.080764 -0.145712
v -0.281049 0.105288 -0.147788
v -0.302488 0.080512 -0.153263
v -0.292580 0.116935 -0.165972
v -0.254010 0.079915 -0.145524
v -0.258077 0.104691 -0.147882
v -0.232046 0.078801 -0.154966
v -0.246645 0.115048 -0.167957
v -0.290865 0.138940 -0.200901
v -0.249150 0.135416 -0.212691
v -0.242720 0.137759 -0.255348
v -0.292362 0.144938 -0.224849
v -0.292342 0.146471 -0.256651
v -0.266707 0.143469 -0.228608
v -0.265721 0.143981 -0.255212
v -0.202231 0.076168 -0.176378
v -0.215794 0.106904 -0.181622
v -0.183476 0.064290 -0.190330
v -0.190107 0.090181 -0.201673
v -0.204658 0.113357 -0.215414
v -0.204964 0.119453 -0.256219
v -0.177408 0.075288 -0.216088
v -0.183756 0.099918 -0.229738
v -0.170870 0.076851 -0.256219
v -0.181630 0.102204 -0.256664
v -0.291955 -0.031157 -0.289265
v -0.262352 -0.029546 -0.283710
v -0.289967 -0.024802 -0.313084
v -0.290009 -0.009101 -0.342284
v -0.246386 -0.019221 -0.299602
v -0.247393 0.001185 -0.342008
v -0.231541 0.019824 -0.357243
v -0.291781 0.009673 -0.368909
v -0.289620 0.037387 -0.386659
v -0.260832 0.013236 -0.364526
v -0.247930 0.035804 -0.373703
v -0.202604 -0.000471 -0.299838
v -0.187394 0.018638 -0.316481
v -0.214355 0.008938 -0.330637
v -0.201881 0.033505 -0.342800
v -0.179492 0.011006 -0.287293
v -0.172966 0.035178 -0.299772
v -0.180022 0.044846 -0.326463
v -0.219782 0.047141 -0.365325
v -0.276388 0.141718 -0.310754
v -0.290172 0.135591 -0.339996
v -0.248446 0.135858 -0.297593
v -0.248673 0.123805 -0.339544
v -0.292188 0.145417 -0.295489
v -0.304626 0.143574 -0.322241
v -0.267747 0.143410 -0.282328
v -0.288761 0.078150 -0.392553
v -0.290507 0.112628 -0.376002
v -0.248709 0.076867 -0.379265
v -0.249458 0.106295 -0.368069
v -0.186130 0.096199 -0.316478
v -0.203110 0.114353 -0.300902
v -0.196909 0.080016 -0.341209
v -0.215651 0.106912 -0.339742
v -0.174404 0.079664 -0.299960
v -0.182047 0.101664 -0.287592
v -0.179331 0.070160 -0.326204
v -0.219967 0.078116 -0.365847
v -0.225730 0.099677 -0.361884
vn -0.5129 -0.6459 0.5655
vn -0.6028 -0.3913 0.6953
vn -0.7197 -0.5685 0.3986
vn -0.5217 -0.7915 0.3183
vn -0.7684 -0.2606 0.5846
vn -0.8992 -0.2969 0.3215
vn -0.4004 -0.7133 0.5753
vn -0.2753 -0.7510 0.6002
vn -0.3666 -0.5680 0.7369
vn -0.4889 -0.4045 0.7729
vn -0.3934 -0.8733 0.2872
vn -0.2331 -0.8882 0.3958
vn -0.2206 -0.6451 0.7316
vn -0.3115 -0.4135 0.8555
vn -0.4547 -0.2935 0.8409
vn -0.3119 -0.9381 0.1504
vn -0.1204 -0.9822 0.1441
vn -0.7968 0.0313 0.6034
vn -0.7345 0.4278 0.5269
vn -0.8110 0.5433 0.2172
vn -0.9719 0.0512 0.2297
vn -0.5512 0.0445 0.8332
vn -0.5239 0.5729 0.6304
vn -0.5123 0.8290 0.2245
vn -0.5168 0.0388 0.8552
vn -0.3430 0.0187 0.9392
vn -0.2858 0.5688 0.7713
vn -0.4712 0.4669 0.7483
vn -0.0876 0.9633 0.2536
vn -0.0158 0.9992 0.0363
vn -0.2120 0.9708 0.1126
vn -0.2614 0.9083 0.3266
vn -0.5846 0.0737 0.8080
vn -0.4463 0.6777 0.5845
vn -0.3950 0.8937 0.2126
vn -0.1950 0.8418 0.5034
vn -0.7412 -0.6713 -0.0047
vn -0.9331 -0.3494 0.0848
vn -0.9037 -0.3805 -0.1962
vn -0.7279 -0.6731 -0.1308
vn -0.5182 -0.8543 0.0413
vn -0.7445 -0.6311 0.2177
vn -0.6545 -0.6493 -0.3873
vn -0.4696 -0.8450 -0.2558
vn -0.3524 -0.9295 -0.1089
vn -0.2231 -0.9204 -0.3209
vn -0.0200 -0.8931 -0.4494
vn -0.0790 -0.9429 -0.3237
vn -0.0762 -0.6433 -0.7618
vn 0.2002 -0.4376 -0.8766
vn 0.0771 -0.7533 -0.6532
vn -0.1175 -0.8075 -0.5781
vn -0.0349 -0.3442 -0.9382
vn 0.2136 -0.2526 -0.9437
vn -0.5373 -0.5213 -0.6630
vn -0.3566 -0.7891 -0.5001
vn -0.3588 -0.3255 -0.8748
vn -0.8264 -0.3098 -0.4702
vn -0.0724 -0.9882 -0.1347
vn -0.2871 -0.9546 -0.0795
vn -0.9968 0.0649 0.0471
vn -0.8119 0.5833 0.0228
vn -0.7801 0.6065 -0.1539
vn -0.9898 0.0624 -0.1282
vn -0.4878 0.8726 -0.0245
vn -0.3961 0.8898 -0.2267
vn -0.6621 0.0891 -0.7441
vn -0.4308 0.7253 -0.5370
vn -0.2911 0.5497 -0.7830
vn -0.3939 0.1022 -0.9135
vn -0.7113 0.5646 -0.4187
vn -0.8575 0.0846 -0.5074
vn 0.0006 0.9984 -0.0572
vn 0.0047 0.9752 -0.2211
vn -0.1138 0.9725 -0.2030
vn -0.1527 0.9862 -0.0643
vn 0.2519 0.1290 -0.9591
vn 0.1756 0.5217 -0.8348
vn 0.1479 0.7161 -0.6822
vn 0.3128 0.1535 -0.9373
vn -0.0243 0.5662 -0.8239
vn -0.0012 0.0815 -0.9967
vn -0.0916 0.8694 -0.4855
vn -0.3197 0.9453 -0.0651
vn -0.1809 0.9338 -0.3088
vn 0.0309 0.9030 -0.4284
vn -0.0985 -0.6802 0.7264
vn 0.0934 -0.6965 0.7115
vn 0.2206 -0.4233 0.8787
vn -0.1888 -0.4602 0.8675
vn -0.1531 -0.3667 0.9177
vn 0.1637 -0.3440 0.9246
vn -0.0094 -0.9364 0.3509
vn -0.0263 -0.9914 0.1279
vn 0.2021 -0.9782 0.0478
vn 0.1492 -0.9362 0.3181
vn 0.7869 -0.6170 0.0036
vn 0.9936 -0.1104 0.0233
vn 0.9280 -0.1905 0.3203
vn 0.7704 -0.5955 0.2277
vn 0.4431 -0.8059 0.3926
vn 0.6425 -0.5079 0.5738
vn 0.4434 -0.8963 0.0102
vn 0.2889 -0.6677 0.6861
vn 0.4879 -0.3242 0.8105
vn 0.1810 -0.8840 0.4310
vn 0.3612 -0.9320 0.0300
vn -0.0880 -0.8369 0.5403
vn 0.7904 -0.0893 0.6060
vn -0.1392 -0.9150 0.3788
vn -0.2743 -0.0138 0.9615
vn -0.2035 0.5010 0.8412
vn -0.1483 0.7108 0.6876
vn -0.3934 0.0206 0.9191
vn 0.5161 0.1112 0.8493
vn 0.3439 0.7373 0.5815
vn 0.2351 0.5119 0.8263
vn 0.2817 0.0365 0.9588
vn 0.1814 0.9741 0.1353
vn 0.1960 0.9806 0.0042
vn 0.0605 0.9981 0.0128
vn 0.0485 0.9824 0.1806
vn 0.9755 0.2159 0.0411
vn 0.7870 0.6155 0.0418
vn 0.7853 0.5838 0.2060
vn 0.9149 0.2853 0.2856
vn 0.7514 0.4962 0.4350
vn 0.5856 0.7613 0.2784
vn 0.5072 0.8615 0.0230
vn 0.6279 0.2255 0.7449
vn 0.5545 0.6343 0.5387
vn 0.3730 0.9278 0.0103
vn 0.2980 0.9158 0.2692
vn 0.0251 0.9085 0.4172
vn 0.8067 0.1643 0.5677
vn 0.1200 -0.9221 -0.3679
vn 0.1408 -0.8536 -0.5016
vn 0.3087 -0.7868 -0.5345
vn 0.3057 -0.9026 -0.3030
vn 0.2336 -0.3484 -0.9077
vn 0.3437 -0.3549 -0.8694
vn 0.2411 -0.6617 -0.7099
vn 0.1634 -0.6957 -0.6995
vn 0.4471 -0.7387 -0.5044
vn 0.6375 -0.3829 -0.6686
vn 0.6755 -0.5690 -0.4689
vn 0.5009 -0.8050 -0.3180
vn 0.9365 -0.2403 -0.2554
vn 0.7671 -0.6076 -0.2059
vn 0.8298 -0.1599 -0.5346
vn 0.4315 -0.5859 -0.6860
vn 0.2006 -0.9668 -0.1582
vn 0.0549 -0.9874 -0.1481
vn 0.5575 -0.1945 -0.8071
vn 0.3387 0.9249 -0.1728
vn 0.3304 0.8593 -0.3905
vn 0.1772 0.9006 -0.3970
vn 0.2205 0.9520 -0.2122
vn 0.2105 0.6580 -0.7230
vn 0.3211 0.6151 -0.7201
vn 0.3316 0.1222 -0.9355
vn 0.2617 0.1466 -0.9540
vn 0.7305 0.2811 -0.6223
vn 0.5407 0.7086 -0.4533
vn 0.5522 0.8038 -0.2213
vn 0.7309 0.5627 -0.3862
vn 0.7752 0.6229 -0.1050
vn 0.9368 0.2832 -0.2054
vn 0.8503 0.1359 -0.5085
vn 0.4996 0.5409 -0.6767
vn 0.5806 0.1587 -0.7986
vn 0.0878 0.9726 -0.2154
vn 0.1062 0.9900 -0.0929
vn 0.1969 0.9779 -0.0704
vt 0.172770 0.245595
vt 0.148297 0.268063
vt 0.135274 0.230481
vt 0.162092 0.221861
vt 0.115622 0.266854
vt 0.111035 0.240036
vt 0.199686 0.247826
vt 0.238215 0.249648
vt 0.226061 0.274372
vt 0.194937 0.284159
vt 0.199974 0.210486
vt 0.235749 0.214961
vt 0.253235 0.270012
vt 0.242797 0.293842
vt 0.209438 0.303783
vt 0.212702 0.193703
vt 0.232757 0.197134
vt 0.095079 0.398878
vt 0.114416 0.417552
vt 0.105827 0.440943
vt 0.074830 0.425363
vt 0.125936 0.374511
vt 0.141615 0.412404
vt 0.139759 0.450758
vt 0.196909 0.343422
vt 0.253986 0.344413
vt 0.246563 0.384235
vt 0.209336 0.379205
vt 0.236274 0.440959
vt 0.229990 0.472337
vt 0.192966 0.464359
vt 0.206207 0.439120
vt 0.164369 0.353021
vt 0.190478 0.410607
vt 0.171162 0.459109
vt 0.240500 0.418623
vt 0.126103 0.181254
vt 0.108882 0.196079
vt 0.101510 0.151811
vt 0.123460 0.165774
vt 0.146950 0.188403
vt 0.131401 0.206964
vt 0.120919 0.138729
vt 0.140618 0.148449
vt 0.194007 0.175760
vt 0.181988 0.139464
vt 0.219419 0.131491
vt 0.224817 0.156997
vt 0.164149 0.082077
vt 0.207423 0.058672
vt 0.211838 0.096790
vt 0.172292 0.106274
vt 0.155054 0.058659
vt 0.188906 0.043773
vt 0.120355 0.100159
vt 0.145381 0.117194
vt 0.123509 0.069884
vt 0.093500 0.114966
vt 0.228519 0.174661
vt 0.210809 0.184117
vt 0.053052 0.479207
vt 0.092327 0.487819
vt 0.084577 0.535705
vt 0.047700 0.535015
vt 0.131174 0.495887
vt 0.120533 0.540853
vt 0.071094 0.613574
vt 0.107592 0.588484
vt 0.116407 0.617462
vt 0.094533 0.635586
vt 0.082440 0.567299
vt 0.055578 0.581658
vt 0.221187 0.515084
vt 0.215385 0.542328
vt 0.187334 0.534380
vt 0.184994 0.507301
vt 0.174746 0.664631
vt 0.168159 0.636015
vt 0.194702 0.615924
vt 0.203576 0.667314
vt 0.143258 0.627776
vt 0.133546 0.655532
vt 0.153141 0.598386
vt 0.163026 0.502586
vt 0.168231 0.547599
vt 0.210393 0.565329
vt 0.281786 0.264551
vt 0.317701 0.255627
vt 0.333882 0.291647
vt 0.290824 0.300889
vt 0.310147 0.318174
vt 0.326659 0.314642
vt 0.279975 0.213875
vt 0.266948 0.200856
vt 0.292769 0.193425
vt 0.292456 0.211352
vt 0.364010 0.183843
vt 0.391925 0.181190
vt 0.385736 0.223828
vt 0.365940 0.210464
vt 0.347256 0.222716
vt 0.366664 0.234664
vt 0.336533 0.186906
vt 0.344355 0.245850
vt 0.366195 0.259100
vt 0.307575 0.223424
vt 0.309554 0.190720
vt 0.273035 0.231772
vt 0.388107 0.247518
vt 0.257356 0.216591
vt 0.297013 0.342754
vt 0.301682 0.366615
vt 0.286366 0.386561
vt 0.279508 0.343730
vt 0.367352 0.351473
vt 0.334180 0.394227
vt 0.323696 0.369221
vt 0.339568 0.340195
vt 0.302088 0.456016
vt 0.298016 0.484594
vt 0.272763 0.480382
vt 0.278444 0.448051
vt 0.435093 0.503579
vt 0.401235 0.499565
vt 0.404614 0.470485
vt 0.434952 0.448412
vt 0.412226 0.431206
vt 0.377796 0.449372
vt 0.367585 0.494855
vt 0.404194 0.384137
vt 0.366480 0.406738
vt 0.320564 0.488081
vt 0.320674 0.443669
vt 0.282356 0.426981
vt 0.403706 0.256031
vt 0.438379 0.233870
vt 0.446198 0.264377
vt 0.404548 0.296281
vt 0.260173 0.150870
vt 0.257051 0.123668
vt 0.296267 0.113544
vt 0.297811 0.157102
vt 0.252082 0.058053
vt 0.299135 0.070273
vt 0.282261 0.091538
vt 0.253606 0.092335
vt 0.328005 0.121543
vt 0.346343 0.099786
vt 0.355815 0.131233
vt 0.338639 0.148492
vt 0.378659 0.139562
vt 0.360984 0.156750
vt 0.376368 0.110117
vt 0.310653 0.093366
vt 0.287213 0.171127
vt 0.262886 0.168993
vt 0.332656 0.068873
vt 0.306899 0.530154
vt 0.304030 0.581174
vt 0.256821 0.567084
vt 0.277248 0.538678
vt 0.249850 0.616424
vt 0.301524 0.617673
vt 0.306752 0.655811
vt 0.247747 0.666161
vt 0.379398 0.610775
vt 0.343339 0.591942
vt 0.365591 0.547185
vt 0.386581 0.571551
vt 0.394652 0.538372
vt 0.416592 0.561270
vt 0.412470 0.600616
vt 0.328977 0.617380
vt 0.344888 0.640840
vt 0.244889 0.546465
vt 0.265015 0.522160
vt 0.291640 0.510638
vt 0.095438 0.286246
vt 0.075051 0.259731
vt 0.126016 0.312301
vt 0.164218 0.334780
vt 0.050708 0.205173
vt 0.047700 0.147021
vt 0.076150 0.066704
vt 0.099657 0.043247
vt 0.059565 0.098896
vt 0.180325 0.007999
vt 0.209871 0.004402
vt 0.138380 0.018888
vt 0.367948 0.329690
vt 0.442571 0.176342
vt 0.254134 0.005681
vt 0.314213 0.016890
vt 0.399496 0.093501
vt 0.430230 0.116090
vt 0.392204 0.060545
vt 0.352081 0.035744
s 1
usemtl SmallRiverRocks
f 3/1/1 4/2/2 6/3/3 5/4/4
f 1/5/5 2/6/6 6/3/3 4/2/2
f 12/7/7 15/8/8 16/9/9 13/10/10
f 12/7/7 14/11/11 17/12/12 15/8/8
f 3/1/1 12/7/7 13/10/10 4/2/2
f 3/1/1 5/4/4 14/11/11 12/7/7
f 8/13/13 9/14/14 16/9/9 15/8/8
f 7/15/15 13/10/10 16/9/9 9/14/14
f 10/16/16 11/17/17 17/12/12 14/11/11
f 18/18/18 19/19/19 21/20/20 20/21/21
f 18/18/18 22/22/22 23/23/23 19/19/19
f 23/23/23 24/24/24 21/20/20 19/19/19
f 25/25/25 27/26/26 28/27/27 26/28/28
f 35/29/29 36/30/30 34/31/31 33/32/32
f 22/22/22 29/33/33 30/34/34 23/23/23
f 30/34/34 31/35/35 24/24/24 23/23/23
f 25/25/25 26/28/28 30/34/34 29/33/33
f 28/27/27 32/36/36 30/34/34 26/28/28
f 30/34/34 33/32/32 34/31/31 31/35/35
f 30/34/34 32/36/36 35/29/29 33/32/32
f 37/37/37 38/38/38 40/39/39 39/40/40
f 37/37/37 41/41/41 42/42/42 38/38/38
f 40/39/39 44/43/43 43/44/44 39/40/40
f 37/37/37 39/40/40 43/44/44 41/41/41
f 51/45/45 52/46/46 54/47/47 53/48/48
f 56/49/49 59/50/50 58/51/51 55/52/52
f 56/49/49 57/53/53 60/54/54 59/50/50
f 41/41/41 43/44/44 52/46/46 51/45/45
f 47/55/55 56/49/49 55/52/52 46/56/56
f 47/55/55 48/57/57 57/53/53 56/49/49
f 43/44/44 44/43/43 47/55/55 46/56/56
f 40/39/39 45/58/58 47/55/55 44/43/43
f 52/46/46 55/52/52 58/51/51 54/47/47
f 51/45/45 53/48/48 50/59/59 49/60/60
f 43/44/44 46/56/56 55/52/52 52/46/46
f 61/61/61 62/62/62 64/63/63 63/64/64
f 65/65/65 66/66/66 64/63/63 62/62/62
f 69/67/67 70/68/68 72/69/69 71/70/70
f 68/71/71 70/68/68 69/67/67 67/72/72
f 78/73/73 79/74/74 77/75/75 76/76/76
f 85/77/77 86/78/78 84/79/79 83/80/80
f 82/81/81 86/78/78 85/77/77 81/82/82
f 84/79/79 86/78/78 82/81/81 80/83/83
f 73/84/84 74/85/85 66/66/66 65/65/65
f 72/69/69 82/81/81 81/82/82 71/70/70
f 80/83/83 82/81/81 72/69/69 70/68/68
f 63/64/64 64/63/63 68/71/71 67/72/72
f 66/66/66 70/68/68 68/71/71 64/63/63
f 75/86/86 84/79/79 80/83/83 74/85/85
f 73/84/84 76/76/76 77/75/75 74/85/85
f 77/75/75 79/74/74 75/86/86 74/85/85
f 74/85/85 80/83/83 70/68/68 66/66/66
f 88/87/87 91/88/88 92/89/89 89/90/90
f 87/91/91 89/90/90 92/89/89 90/92/92
f 93/93/93 94/94/94 96/95/95 95/96/96
f 109/97/97 110/98/98 108/99/99 107/100/100
f 104/101/101 107/100/100 108/99/99 105/102/102
f 104/101/101 106/103/103 109/97/97 107/100/100
f 91/88/88 101/104/104 102/105/105 92/89/89
f 99/106/106 100/107/107 106/103/103 104/101/101
f 88/87/87 97/108/108 99/106/106 91/88/88
f 104/101/101 105/102/102 102/105/105 101/104/104
f 102/105/105 105/102/102 108/99/99 103/109/109
f 93/93/93 97/108/108 98/110/110 94/94/94
f 96/95/95 100/107/107 99/106/106 95/96/96
f 93/93/93 95/96/96 99/106/106 97/108/108
f 91/88/88 99/106/106 104/101/101 101/104/104
f 111/111/111 112/112/112 114/113/113 113/114/114
f 117/115/115 118/116/116 116/117/117 115/118/118
f 111/111/111 115/118/118 116/117/117 112/112/112
f 116/117/117 118/116/116 114/113/113 112/112/112
f 124/119/119 125/120/120 123/121/121 122/122/122
f 134/123/123 135/124/124 133/125/125 132/126/126
f 129/127/127 132/126/126 133/125/125 130/128/128
f 133/125/125 135/124/124 131/129/129 130/128/128
f 117/115/115 126/130/130 127/131/131 118/116/116
f 130/128/128 131/129/129 121/132/132 120/133/133
f 118/116/116 120/133/133 119/134/134 114/113/113
f 129/127/127 130/128/128 127/131/131 126/130/130
f 128/135/135 132/136/126 129/137/127 126/138/130
f 121/132/132 125/120/120 124/119/119 120/133/133
f 119/134/134 120/133/133 124/119/119 122/122/122
f 127/131/131 130/128/128 120/133/133 118/116/116
f 138/139/136 139/140/137 141/141/138 140/142/139
f 144/143/140 146/144/141 145/145/142 143/146/143
f 149/147/144 150/148/145 148/149/146 147/150/147
f 148/149/146 152/151/148 151/152/149 147/150/147
f 148/149/146 150/148/145 153/153/150 152/151/148
f 142/154/151 150/148/145 149/147/144 141/141/138
f 140/142/139 141/141/138 149/147/144 147/150/147
f 145/145/142 146/144/141 142/154/151 141/141/138
f 139/140/137 143/146/143 145/145/142 141/141/138
f 138/139/136 140/142/139 137/155/152 136/156/153
f 142/154/151 146/144/141 154/157/154 150/148/145
f 157/158/155 158/159/156 156/160/157 155/161/158
f 163/162/159 165/163/160 164/164/161 162/165/162
f 168/166/163 169/167/164 167/168/165 166/169/166
f 167/168/165 171/170/167 170/171/168 166/169/166
f 170/171/168 172/172/169 168/166/163 166/169/166
f 167/168/165 169/167/164 158/159/156 157/158/155
f 165/163/160 174/173/170 173/174/171 164/164/161
f 158/159/156 165/163/160 163/162/159 156/160/157
f 173/174/171 174/173/170 169/167/164 168/166/163
f 156/160/157 160/175/172 159/176/173 155/161/158
f 159/176/173 161/177/174 157/158/155 155/161/158
f 169/167/164 174/173/170 165/163/160 158/159/156
f 8/13/13 88/87/87 89/90/90 9/14/14
f 15/8/8 17/12/12 98/110/110 97/108/108
f 11/17/17 94/94/94 98/110/110 17/12/12
f 8/13/13 15/8/8 97/108/108 88/87/87
f 27/26/26 113/114/114 114/113/113 28/27/27
f 122/122/122 123/121/121 36/30/30 35/29/29
f 32/36/36 119/134/134 122/122/122 35/29/29
f 114/113/113 119/134/134 32/36/36 28/27/27
f 53/48/48 54/47/47 139/140/137 138/139/136
f 59/50/50 144/143/140 143/146/143 58/51/51
f 53/48/48 138/139/136 136/156/153 50/59/59
f 54/47/47 58/51/51 143/146/143 139/140/137
f 159/176/173 160/175/172 79/74/74 78/73/73
f 84/79/79 163/162/159 162/165/162 83/80/80
f 79/74/74 160/175/172 156/160/157 75/86/86
f 156/160/157 163/162/159 84/79/79 75/86/86
f 10/16/16 49/60/60 50/59/59 11/17/17
f 5/4/4 6/3/3 42/42/42 41/41/41
f 2/6/6 38/38/38 42/42/42 6/3/3
f 10/16/16 14/11/11 51/45/45 49/60/60
f 5/4/4 41/41/41 51/45/45 14/11/11
f 94/94/94 136/156/153 137/155/152 96/95/95
f 151/152/149 152/151/148 110/98/98 109/97/97
f 106/103/103 147/150/147 151/152/149 109/97/97
f 137/155/152 140/142/139 100/107/107 96/95/95
f 100/107/107 140/142/139 147/150/147 106/103/103
f 20/21/21 21/20/20 62/62/62 61/61/61
f 24/24/24 65/65/65 62/62/62 21/20/20
f 36/30/30 78/73/73 76/76/76 34/31/31
f 31/35/35 34/31/31 76/76/76 73/84/84
f 31/35/35 73/84/84 65/65/65 24/24/24
f 170/171/168 171/170/167 135/124/124 134/123/123
f 135/124/124 171/170/167 167/168/165 131/129/129
f 125/120/120 161/177/174 159/176/173 123/121/121
f 157/158/155 161/177/174 125/120/120 121/132/132
f 131/129/129 167/168/165 157/158/155 121/132/132
f 1/5/5 18/178/18 20/179/21 2/6/6
f 1/5/5 4/2/2 22/180/22 18/178/18
f 7/15/15 9/14/14 27/26/26 25/25/25
f 7/15/15 25/25/25 29/181/33 13/10/10
f 4/2/2 13/10/10 29/181/33 22/180/22
f 38/38/38 61/182/61 63/183/64 40/39/39
f 47/55/55 69/184/67 71/185/70 48/57/57
f 67/186/72 69/184/67 47/55/55 45/58/58
f 60/54/54 85/187/77 83/188/80 59/50/50
f 81/189/82 85/187/77 60/54/54 57/53/53
f 40/39/39 63/183/64 67/186/72 45/58/58
f 71/185/70 81/189/82 57/53/53 48/57/57
f 87/91/91 111/111/111 113/114/114 89/90/90
f 92/89/89 117/190/115 115/118/118 90/92/92
f 87/91/91 90/92/92 115/118/118 111/111/111
f 102/105/105 103/109/109 128/135/135 126/138/130
f 110/98/98 134/191/123 132/136/126 108/99/99
f 108/99/99 132/136/126 128/135/135 103/109/109
f 92/89/89 102/105/105 126/138/130 117/190/115
f 162/192/162 164/193/161 146/144/141 144/143/140
f 153/153/150 172/194/169 170/195/168 152/151/148
f 168/196/163 172/194/169 153/153/150 150/148/145
f 154/157/154 173/197/171 168/196/163 150/148/145
f 164/193/161 173/197/171 154/157/154 146/144/141
f 2/6/6 20/179/21 61/182/61 38/38/38
f 152/151/148 170/195/168 134/191/123 110/98/98
f 9/14/14 89/90/90 113/114/114 27/26/26
f 83/188/80 162/192/162 144/143/140 59/50/50
f 11/17/17 50/59/59 136/156/153 94/94/94
f 123/121/121 159/176/173 78/73/73 36/30/30
