# Blender 4.3.2
# www.blender.org
mtllib rock_small_3.mtl
g SmallRiverRock_03_SmallRiverRock_03
v -0.124897 0.026193 -1.055423
v -0.145914 0.022638 -1.073130
v -0.095817 -0.012418 -1.077754
v -0.100580 0.012364 -1.062844
v -0.117461 -0.017722 -1.097075
v -0.132589 0.001616 -1.082835
v -0.041316 0.020706 -1.075872
v -0.013193 -0.015106 -1.101231
v -0.019495 0.009528 -1.091120
v -0.052926 -0.051381 -1.159049
v -0.069059 -0.020017 -1.089751
v -0.059034 0.008910 -1.071944
v -0.092046 -0.033034 -1.116762
v -0.035172 -0.028177 -1.108047
v -0.036623 -0.006769 -1.085681
v -0.057753 -0.045358 -1.141056
v -0.124717 0.053121 -1.049736
v -0.125217 0.079800 -1.053709
v -0.151506 0.053272 -1.067544
v -0.145786 0.085444 -1.072293
v -0.094231 0.052448 -1.053085
v -0.100781 0.088019 -1.063861
v -0.120098 0.106642 -1.089034
v -0.113219 0.114656 -1.107220
v -0.044083 0.051834 -1.072518
v -0.044636 0.077147 -1.077571
v -0.017607 0.050707 -1.092412
v -0.020750 0.079299 -1.096797
v -0.065148 0.052770 -1.063815
v -0.069706 0.094452 -1.082056
v -0.094691 0.111333 -1.090829
v -0.041297 0.101330 -1.113117
v -0.059066 0.110218 -1.145390
v -0.074310 0.112373 -1.103453
v -0.093430 0.115689 -1.112298
v -0.062896 0.113327 -1.114830
v -0.076193 0.115223 -1.130514
v -0.168965 0.025094 -1.103105
v -0.182178 0.029591 -1.126614
v -0.140875 -0.015623 -1.127506
v -0.157660 0.003961 -1.115246
v -0.155706 -0.009677 -1.152171
v -0.174612 0.014107 -1.152402
v -0.179990 0.025677 -1.178130
v -0.065852 -0.050826 -1.173514
v -0.118295 -0.030223 -1.148084
v -0.141011 -0.017655 -1.175035
v -0.157009 -0.002297 -1.187667
v -0.086764 -0.042293 -1.174649
v -0.119001 -0.020936 -1.205534
v -0.140823 -0.007769 -1.208129
v -0.162405 0.017842 -1.199553
v -0.122705 -0.008793 -1.225009
v -0.134266 0.009490 -1.223426
v -0.175397 0.053573 -1.098528
v -0.170179 0.084451 -1.102262
v -0.188815 0.053522 -1.126502
v -0.185996 0.078202 -1.126848
v -0.145232 0.104944 -1.121668
v -0.188460 0.052294 -1.152676
v -0.175757 0.085530 -1.152319
v -0.123534 0.114261 -1.120260
v -0.184600 0.052547 -1.178159
v -0.179974 0.076003 -1.177511
v -0.123075 0.110365 -1.151797
v -0.145970 0.096994 -1.178364
v -0.089413 0.109598 -1.171667
v -0.113961 0.096532 -1.205097
v -0.108778 0.115371 -1.134459
v -0.091770 0.115003 -1.148700
v -0.164573 0.051913 -1.202106
v -0.159941 0.079607 -1.197360
v -0.133863 0.051287 -1.228186
v -0.130284 0.079461 -1.222476
v 0.013114 -0.018356 -1.122098
v 0.015697 0.012165 -1.116393
v 0.042671 -0.015913 -1.146881
v 0.048089 0.013291 -1.143410
v -0.029489 -0.051778 -1.171924
v -0.016722 -0.050669 -1.190531
v -0.002259 -0.038319 -1.139991
v -0.017813 -0.049046 -1.159045
v 0.027282 -0.033245 -1.166643
v 0.002340 -0.043103 -1.193092
v 0.062481 -0.010671 -1.167332
v 0.074234 0.011744 -1.173730
v 0.087872 0.022799 -1.190863
v 0.053795 -0.018745 -1.189236
v 0.069439 -0.002289 -1.202200
v 0.033302 -0.022624 -1.221717
v 0.048912 -0.007754 -1.235316
v 0.078649 0.017993 -1.211245
v 0.056616 0.012961 -1.242178
v 0.014722 0.051696 -1.118471
v 0.009610 0.079555 -1.121910
v 0.046359 0.053647 -1.146498
v 0.032401 0.077654 -1.141971
v -0.004380 0.096897 -1.140089
v -0.029314 0.105747 -1.170294
v 0.050963 0.070586 -1.162942
v 0.030033 0.088762 -1.165629
v 0.002472 0.100330 -1.196910
v 0.073957 0.041985 -1.173487
v 0.087340 0.037052 -1.191287
v 0.066567 0.062546 -1.185836
v 0.051614 0.080732 -1.199533
v 0.031266 0.087802 -1.223352
v 0.076069 0.049432 -1.211530
v 0.062842 0.071849 -1.219167
v 0.056917 0.049780 -1.243743
v 0.049345 0.074023 -1.237672
v -0.047022 -0.051291 -1.190426
v -0.029109 -0.050119 -1.204365
v -0.062070 -0.043316 -1.207368
v -0.086929 -0.021874 -1.233660
v -0.086016 -0.004536 -1.253955
v -0.026044 -0.040039 -1.225000
v -0.049026 -0.020248 -1.254796
v -0.059292 0.009894 -1.271922
v -0.107441 -0.008815 -1.237570
v -0.101296 0.010995 -1.249511
v -0.076451 0.020587 -1.268767
v 0.004100 -0.021858 -1.251221
v 0.019097 -0.004671 -1.265347
v -0.020278 -0.013958 -1.269367
v -0.014679 0.010430 -1.281992
v 0.029272 0.016134 -1.271704
v 0.007992 0.020913 -1.287701
v -0.056702 0.102218 -1.202081
v -0.081284 0.069896 -1.258491
v -0.082469 0.087401 -1.236234
v -0.024151 0.095524 -1.227981
v -0.058052 0.054594 -1.271568
v -0.047595 0.081565 -1.253925
v -0.098622 0.054054 -1.253314
v -0.104507 0.076558 -1.242317
v -0.075662 0.044841 -1.269282
v 0.009355 0.065074 -1.271186
v 0.007672 0.081933 -1.252007
v -0.015649 0.051627 -1.280541
v -0.019674 0.075482 -1.265890
v 0.029274 0.051409 -1.270298
v 0.032255 0.072496 -1.255642
v 0.008064 0.040993 -1.286744
vn -0.0855 -0.7026 0.7064
vn 0.0016 -0.4621 0.8868
vn -0.4713 -0.6711 0.5723
vn -0.3634 -0.8118 0.4570
vn -0.2531 -0.4005 0.8807
vn -0.6029 -0.4612 0.6510
vn 0.0640 -0.7620 0.6444
vn 0.1812 -0.7882 0.5881
vn 0.3064 -0.4823 0.8207
vn 0.2737 -0.3532 0.8946
vn -0.1858 -0.9301 0.3168
vn -0.0838 -0.9469 0.3104
vn 0.4402 -0.5049 0.7425
vn 0.5278 -0.1778 0.8305
vn 0.4551 -0.1209 0.8822
vn -0.2180 -0.0038 0.9760
vn -0.2009 0.4555 0.8673
vn -0.5410 0.5657 0.6224
vn -0.6988 -0.0211 0.7150
vn 0.2526 0.0473 0.9664
vn 0.1392 0.5778 0.8042
vn -0.2144 0.8710 0.4420
vn 0.4391 0.0989 0.8930
vn 0.6049 0.0950 0.7906
vn 0.5366 0.5078 0.6740
vn 0.4108 0.4555 0.7898
vn 0.3264 0.9235 0.2014
vn 0.1612 0.9861 -0.0397
vn 0.0356 0.9863 0.1610
vn 0.2483 0.8958 0.3686
vn 0.3032 0.1049 0.9471
vn 0.3026 0.6577 0.6898
vn 0.0858 0.8673 0.4903
vn 0.3721 0.8596 0.3503
vn 0.2064 0.9768 -0.0569
vn -0.1751 0.9654 0.1933
vn -0.5464 -0.8074 0.2227
vn -0.6818 -0.6595 0.3166
vn -0.8453 -0.5343 0.0005
vn -0.6621 -0.7483 0.0415
vn -0.7784 -0.4502 0.4375
vn -0.8876 -0.4157 0.1984
vn -0.7099 -0.6356 -0.3034
vn -0.6153 -0.6315 -0.4718
vn -0.4477 -0.8305 -0.3314
vn -0.5359 -0.8352 -0.1236
vn -0.3837 -0.9214 0.0615
vn -0.3408 -0.9370 -0.0768
vn -0.6389 -0.2756 -0.7182
vn -0.5367 -0.5841 -0.6089
vn -0.7570 -0.3027 -0.5790
vn -0.8879 -0.3362 -0.3142
vn -0.8433 -0.0340 0.5364
vn -0.7189 0.5684 0.4001
vn -0.8679 0.4781 0.1347
vn -0.9835 -0.0340 0.1775
vn -0.7214 0.6833 -0.1128
vn -0.9970 -0.0153 -0.0754
vn -0.4434 0.8918 0.0896
vn -0.0375 0.9714 -0.2346
vn -0.2237 0.8916 -0.3938
vn -0.3756 0.8820 -0.2846
vn -0.2647 0.9461 -0.1867
vn -0.5979 0.5594 -0.5741
vn -0.4961 0.5615 -0.6623
vn -0.6205 0.0764 -0.7805
vn -0.7075 0.0582 -0.7043
vn -0.7973 0.4920 -0.3495
vn -0.9339 0.0298 -0.3562
vn -0.1232 0.9886 -0.0868
vn 0.0152 0.9878 -0.1551
vn -0.2751 0.9598 0.0557
vn 0.5301 -0.5323 0.6600
vn 0.6343 -0.5514 0.5418
vn 0.6957 -0.0695 0.7150
vn 0.6236 -0.0715 0.7784
vn 0.3069 -0.8751 0.3743
vn 0.2128 -0.9519 0.2205
vn 0.3469 -0.9278 -0.1371
vn 0.4501 -0.8812 0.1446
vn 0.4327 -0.8516 -0.2959
vn 0.6074 -0.6498 -0.4569
vn 0.7616 -0.6245 -0.1729
vn 0.6100 -0.7912 -0.0444
vn 0.7586 -0.2578 -0.5984
vn 0.8834 -0.2735 -0.3806
vn 0.7563 -0.5564 0.3442
vn 0.8567 -0.2835 0.4309
vn 0.9739 -0.2043 0.0989
vn 0.1046 -0.9913 0.0800
vn 0.2320 -0.9655 -0.1181
vn 0.6317 0.1291 0.7644
vn 0.7186 0.2600 0.6449
vn 0.6251 0.5574 0.5465
vn 0.5647 0.5395 0.6245
vn 0.4887 0.8452 0.2163
vn 0.2134 0.9723 -0.0956
vn 0.1529 0.9880 -0.0241
vn 0.3442 0.8989 0.2713
vn 0.7680 0.1781 -0.6153
vn 0.5937 0.6576 -0.4638
vn 0.7406 0.6308 -0.2317
vn 0.8987 0.3423 -0.2740
vn 0.7630 0.6004 0.2395
vn 0.5812 0.8131 0.0327
vn 0.3230 0.9192 -0.2252
vn 0.7136 0.5872 0.3821
vn 0.9628 0.2532 0.0939
vn 0.8065 0.2834 0.5189
vn -0.3897 -0.5100 -0.7669
vn -0.2749 -0.2897 -0.9168
vn -0.1831 -0.7362 -0.6515
vn -0.3382 -0.7783 -0.5290
vn -0.2548 -0.8981 -0.3584
vn 0.0548 -0.9052 -0.4215
vn -0.0134 -0.6720 -0.7404
vn -0.0663 -0.3222 -0.9443
vn 0.3856 -0.6251 -0.6787
vn 0.2412 -0.8152 -0.5266
vn 0.2098 -0.2069 -0.9556
vn 0.5798 -0.2718 -0.7681
vn -0.4974 -0.5645 -0.6587
vn -0.5507 -0.2372 -0.8003
vn -0.4080 -0.1221 -0.9048
vn 0.0662 -0.9525 -0.2972
vn -0.1197 -0.9768 -0.1776
vn -0.1835 0.8233 -0.5372
vn -0.0996 0.7832 -0.6137
vn -0.2224 0.3217 -0.9204
vn -0.2920 0.5306 -0.7957
vn 0.0347 0.9429 -0.3312
vn -0.0112 0.9660 -0.2583
vn -0.0932 0.3473 -0.9331
vn -0.0287 0.7168 -0.6966
vn 0.1716 0.8300 -0.5308
vn 0.1890 0.6040 -0.7743
vn 0.4422 0.6509 -0.6170
vn 0.5348 0.3104 -0.7859
vn 0.2001 0.2169 -0.9555
vn -0.5281 0.1925 -0.8271
vn -0.4285 0.5586 -0.7102
vn -0.3837 0.0997 -0.9181
vn -0.1066 -0.9779 0.1799
vn -0.2595 -0.9657 -0.0011
vt 0.701653 0.829729
vt 0.720454 0.856133
vt 0.674431 0.860596
vt 0.673362 0.832717
vt 0.707924 0.889383
vt 0.675000 0.889308
vt 0.709531 0.802438
vt 0.719679 0.769344
vt 0.736674 0.789369
vt 0.739391 0.812640
vt 0.673976 0.797124
vt 0.680241 0.758385
vt 0.742873 0.765149
vt 0.755565 0.784012
vt 0.752982 0.806503
vt 0.764695 0.880931
vt 0.782609 0.877372
vt 0.793847 0.889567
vt 0.774115 0.904400
vt 0.763535 0.855956
vt 0.788677 0.862531
vt 0.808047 0.871775
vt 0.773902 0.821808
vt 0.786219 0.800010
vt 0.801314 0.810452
vt 0.789459 0.826475
vt 0.820456 0.840677
vt 0.830629 0.846770
vt 0.820187 0.857330
vt 0.816184 0.846701
vt 0.767870 0.835834
vt 0.798893 0.843787
vt 0.808297 0.858860
vt 0.817216 0.825464
vt 0.837921 0.836627
vt 0.818889 0.868730
vt 0.632598 0.829798
vt 0.629571 0.859731
vt 0.581479 0.851864
vt 0.604132 0.824554
vt 0.626530 0.888682
vt 0.596187 0.887400
vt 0.571592 0.799992
vt 0.568451 0.777190
vt 0.588449 0.759781
vt 0.596869 0.797958
vt 0.634903 0.796477
vt 0.639024 0.755695
vt 0.547572 0.761283
vt 0.567275 0.748368
vt 0.545990 0.805538
vt 0.547706 0.839558
vt 0.797808 0.926952
vt 0.811335 0.906732
vt 0.825965 0.918010
vt 0.822068 0.937212
vt 0.843376 0.911962
vt 0.843485 0.939825
vt 0.825231 0.887525
vt 0.855564 0.853788
vt 0.879041 0.870039
vt 0.860620 0.890096
vt 0.843381 0.873897
vt 0.874881 0.904664
vt 0.895438 0.882973
vt 0.914378 0.897122
vt 0.889300 0.922871
vt 0.860561 0.917289
vt 0.864928 0.935391
vt 0.834103 0.865961
vt 0.842591 0.855729
vt 0.824779 0.873797
vt 0.755675 0.732592
vt 0.794110 0.702692
vt 0.809312 0.730273
vt 0.780605 0.753510
vt 0.716893 0.721770
vt 0.698763 0.719402
vt 0.687265 0.682450
vt 0.728146 0.683275
vt 0.902245 0.677877
vt 0.906442 0.700498
vt 0.867057 0.704658
vt 0.855668 0.681719
vt 0.902242 0.719148
vt 0.871514 0.723436
vt 0.828031 0.694883
vt 0.843343 0.719570
vt 0.691155 0.625214
vt 0.736454 0.640444
vt 0.762042 0.685098
vt 0.858293 0.729140
vt 0.683429 0.717963
vt 0.674762 0.697421
vt 0.763773 0.652750
vt 0.804550 0.777102
vt 0.828308 0.760049
vt 0.830571 0.777283
vt 0.818581 0.790519
vt 0.845337 0.780585
vt 0.865867 0.797627
vt 0.851961 0.817438
vt 0.831775 0.802102
vt 0.892275 0.750811
vt 0.885944 0.764077
vt 0.875419 0.758967
vt 0.870807 0.744151
vt 0.855410 0.754381
vt 0.865082 0.766469
vt 0.879061 0.776815
vt 0.841937 0.764197
vt 0.858962 0.734485
vt 0.847856 0.741161
vt 0.568490 0.701214
vt 0.561737 0.658613
vt 0.601462 0.671229
vt 0.590669 0.715896
vt 0.633544 0.716231
vt 0.644558 0.679052
vt 0.609779 0.638003
vt 0.590729 0.612848
vt 0.640633 0.602945
vt 0.642953 0.631696
vt 0.949906 0.723410
vt 0.969670 0.771350
vt 0.943171 0.760680
vt 0.932034 0.741364
vt 0.567275 0.731108
vt 0.547859 0.712173
vt 0.543339 0.669416
vt 0.658383 0.696180
vt 0.653801 0.717856
vt 0.901364 0.847619
vt 0.909935 0.821031
vt 0.935471 0.825678
vt 0.920865 0.844769
vt 0.887436 0.810079
vt 0.873188 0.832206
vt 0.932140 0.790964
vt 0.913742 0.801204
vt 0.899793 0.786138
vt 0.913044 0.779159
vt 0.897614 0.770269
vt 0.912932 0.764135
vt 0.932857 0.770025
vt 0.930099 0.861626
vt 0.910066 0.863135
vt 0.945176 0.838590
vt 0.671283 0.744457
vt 0.653868 0.742976
vt 0.690740 0.601556
vt 0.735289 0.889052
vt 0.745416 0.921326
vt 0.781267 0.954238
vt 0.812566 0.962203
vt 0.845851 0.984753
vt 0.949291 0.927955
vt 0.912618 0.954279
vt 0.877534 0.964053
vt 0.971645 0.840293
vt 0.974088 0.884032
vt 0.984951 0.824430
s 1
usemtl SmallRiverRocks
f 3/1/1 4/2/2 6/3/3 5/4/4
f 1/5/5 2/6/6 6/3/3 4/2/2
f 11/7/7 14/8/8 15/9/9 12/10/10
f 11/7/7 13/11/11 16/12/12 14/8/8
f 3/1/1 11/7/7 12/10/10 4/2/2
f 3/1/1 5/4/4 13/11/11 11/7/7
f 8/13/13 9/14/14 15/9/9 14/8/8
f 7/15/15 12/10/10 15/9/9 9/14/14
f 17/16/16 18/17/17 20/18/18 19/19/19
f 17/16/16 21/20/20 22/21/21 18/17/17
f 22/21/21 23/22/22 20/18/18 18/17/17
f 25/23/23 27/24/24 28/25/25 26/26/26
f 36/27/27 37/28/28 35/29/29 34/30/30
f 21/20/20 29/31/31 30/32/32 22/21/21
f 30/32/32 31/33/33 23/22/22 22/21/21
f 25/23/23 26/26/26 30/32/32 29/31/31
f 28/25/25 32/34/34 30/32/32 26/26/26
f 30/32/32 34/30/30 35/29/29 31/33/33
f 33/35/35 37/28/28 36/27/27 32/34/34
f 30/32/32 32/34/34 36/27/27 34/30/30
f 23/22/22 31/33/33 35/29/29 24/36/36
f 40/37/37 41/38/38 43/39/39 42/40/40
f 38/41/41 39/42/42 43/39/39 41/38/38
f 48/43/43 51/44/44 50/45/45 47/46/46
f 46/47/47 47/46/46 50/45/45 49/48/48
f 43/39/39 48/43/43 47/46/46 42/40/40
f 40/37/37 42/40/40 47/46/46 46/47/47
f 50/45/45 51/44/44 54/49/49 53/50/50
f 48/43/43 52/51/51 54/49/49 51/44/44
f 43/39/39 44/52/52 52/51/51 48/43/43
f 55/53/53 56/54/54 58/55/55 57/56/56
f 58/55/55 61/57/57 60/58/58 57/56/56
f 59/59/59 61/57/57 58/55/55 56/54/54
f 67/60/60 68/61/61 66/62/62 65/63/63
f 72/64/64 74/65/65 73/66/66 71/67/67
f 65/63/63 66/62/62 61/57/57 59/59/59
f 64/68/68 72/64/64 71/67/67 63/69/69
f 60/58/58 61/57/57 64/68/68 63/69/69
f 68/61/61 74/65/65 72/64/64 66/62/62
f 69/70/70 70/71/71 67/60/60 65/63/63
f 62/72/72 69/70/70 65/63/63 59/59/59
f 66/62/62 72/64/64 64/68/68 61/57/57
f 75/73/73 77/74/74 78/75/75 76/76/76
f 81/77/77 82/78/78 84/79/79 83/80/80
f 90/81/81 91/82/82 89/83/83 88/84/84
f 89/83/83 91/82/82 93/85/85 92/86/86
f 77/74/74 85/87/87 86/88/88 78/75/75
f 83/80/80 84/79/79 90/89/81 88/90/84
f 75/73/73 81/77/77 83/80/80 77/91/74
f 88/84/84 89/83/83 86/88/88 85/87/87
f 86/88/88 89/83/83 92/86/86 87/92/89
f 79/93/90 80/94/91 84/79/79 82/78/78
f 77/91/74 83/80/80 88/90/84 85/95/87
f 94/96/92 96/97/93 97/98/94 95/99/95
f 101/100/96 102/101/97 99/102/98 98/103/99
f 110/104/100 111/105/101 109/106/102 108/107/103
f 105/108/104 108/107/103 109/106/102 106/109/105
f 109/106/102 111/105/101 107/110/106 106/109/105
f 100/111/107 105/108/104 106/109/105 101/100/96
f 106/109/105 107/110/106 102/101/97 101/100/96
f 100/111/107 101/100/96 97/98/94 96/97/93
f 97/98/94 101/100/96 98/103/99 95/99/95
f 104/112/108 108/107/103 105/108/104 103/113/109
f 103/113/109 105/108/104 100/111/107 96/97/93
f 116/114/110 119/115/111 118/116/112 115/117/113
f 114/118/114 115/117/113 118/116/112 117/119/115
f 125/120/116 126/121/117 124/122/118 123/123/119
f 124/124/118 126/125/117 128/126/120 127/127/121
f 119/115/111 126/121/117 125/120/116 118/116/112
f 117/119/115 118/116/112 125/120/116 123/123/119
f 120/128/122 121/129/123 116/114/110 115/117/113
f 116/114/110 121/129/123 122/130/124 119/115/111
f 114/118/114 117/119/115 113/131/125 112/132/126
f 131/133/127 134/134/128 133/135/129 130/136/130
f 132/137/131 134/134/128 131/133/127 129/138/132
f 140/139/133 141/140/134 139/141/135 138/142/136
f 139/141/135 143/143/137 142/144/138 138/142/136
f 142/144/138 144/145/139 140/139/133 138/142/136
f 134/134/128 141/140/134 140/139/133 133/135/129
f 139/141/135 141/140/134 134/134/128 132/137/131
f 135/146/140 136/147/141 131/133/127 130/136/130
f 133/135/129 137/148/142 135/146/140 130/136/130
f 8/13/13 75/73/73 76/76/76 9/14/14
f 14/8/8 16/12/12 82/78/78 81/77/77
f 10/149/143 79/93/90 82/78/78 16/12/12
f 8/13/13 14/8/8 81/77/77 75/73/73
f 27/24/24 94/96/92 95/99/95 28/25/25
f 98/103/99 99/102/98 33/35/35 32/34/34
f 95/99/95 98/103/99 32/34/34 28/25/25
f 49/48/48 50/45/45 115/117/113 114/118/114
f 54/49/49 121/129/123 120/128/122 53/50/50
f 49/48/48 114/118/114 112/132/126 45/150/144
f 50/45/45 53/50/50 120/128/122 115/117/113
f 129/138/132 131/133/127 68/61/61 67/60/60
f 74/65/65 136/147/141 135/146/140 73/66/66
f 131/133/127 136/147/141 74/65/65 68/61/61
f 5/4/4 6/3/3 41/38/38 40/37/37
f 2/6/6 38/41/41 41/38/38 6/3/3
f 13/11/11 46/47/47 49/48/48 16/12/12
f 10/149/143 16/12/12 49/48/48 45/150/144
f 5/4/4 40/37/37 46/47/47 13/11/11
f 79/93/90 112/132/126 113/131/125 80/94/91
f 123/123/119 124/122/118 91/151/82 90/89/81
f 91/82/82 124/124/118 127/127/121 93/85/85
f 113/131/125 117/119/115 84/79/79 80/94/91
f 84/79/79 117/119/115 123/123/119 90/89/81
f 19/19/19 20/18/18 56/54/54 55/53/53
f 23/22/22 59/59/59 56/54/54 20/18/18
f 37/28/28 70/71/71 69/70/70 35/29/29
f 23/22/22 24/36/36 62/72/72 59/59/59
f 67/60/60 70/71/71 37/28/28 33/35/35
f 35/29/29 69/70/70 62/72/72 24/36/36
f 102/101/97 132/137/131 129/138/132 99/102/98
f 142/144/138 143/143/137 111/105/101 110/104/100
f 111/105/101 143/143/137 139/141/135 107/110/106
f 107/110/106 139/141/135 132/137/131 102/101/97
f 1/152/5 17/16/16 19/19/19 2/153/6
f 1/152/5 4/2/2 21/20/20 17/16/16
f 7/15/15 9/14/14 27/24/24 25/23/23
f 7/15/15 25/23/23 29/31/31 12/10/10
f 4/2/2 12/10/10 29/31/31 21/20/20
f 38/154/41 55/53/53 57/56/56 39/155/42
f 57/56/56 60/58/58 43/156/39 39/155/42
f 71/67/67 73/66/66 54/157/49 52/158/51
f 43/156/39 60/58/58 63/69/69 44/159/52
f 63/69/69 71/67/67 52/158/51 44/159/52
f 76/76/76 78/75/75 96/97/93 94/96/92
f 86/88/88 87/92/89 104/112/108 103/113/109
f 93/85/85 110/104/100 108/107/103 92/86/86
f 92/86/86 108/107/103 104/112/108 87/92/89
f 78/75/75 86/88/88 103/113/109 96/97/93
f 135/146/140 137/148/142 122/160/124 121/161/123
f 128/126/120 144/145/139 142/144/138 127/127/121
f 140/139/133 144/145/139 128/126/120 126/125/117
f 122/160/124 137/148/142 133/135/129 119/162/111
f 133/135/129 140/139/133 126/125/117 119/162/111
f 2/153/6 19/19/19 55/53/53 38/154/41
f 127/127/121 142/144/138 110/104/100 93/85/85
f 9/14/14 76/76/76 94/96/92 27/24/24
f 73/66/66 135/146/140 121/161/123 54/157/49
f 10/149/143 45/150/144 112/132/126 79/93/90
f 99/102/98 129/138/132 67/60/60 33/35/35
