# Blender 4.3.2
# www.blender.org
mtllib rock_small_2.mtl
g SmallRiverRock_02_SmallRiverRock_02
v -0.531986 -0.003447 -0.781939
v -0.562912 0.048031 -0.754314
v -0.564524 0.021764 -0.778443
v -0.568712 0.041025 -0.769956
v -0.539286 0.019467 -0.748933
v -0.549010 0.040828 -0.745021
v -0.545399 0.009622 -0.770663
v -0.558683 0.028832 -0.758353
v -0.505423 0.023070 -0.721641
v -0.509094 0.042023 -0.716838
v -0.483436 0.020171 -0.717569
v -0.484257 0.042915 -0.707388
v -0.514247 -0.006235 -0.779433
v -0.484604 -0.007076 -0.777519
v -0.515829 0.014789 -0.738411
v -0.525506 0.041868 -0.729378
v -0.516009 -0.000070 -0.761725
v -0.484688 0.006241 -0.738575
v -0.484604 -0.003329 -0.759875
v -0.562230 0.062950 -0.755167
v -0.566743 0.070921 -0.772018
v -0.562108 0.088018 -0.779840
v -0.546606 0.071143 -0.747185
v -0.537261 0.090286 -0.752965
v -0.556426 0.081345 -0.761567
v -0.546484 0.096049 -0.772164
v -0.506732 0.064542 -0.718696
v -0.484145 0.072966 -0.713016
v -0.474280 0.089368 -0.721386
v -0.518440 0.073554 -0.731264
v -0.515086 0.095434 -0.746901
v -0.516506 0.111020 -0.772719
v -0.495517 0.084393 -0.726197
v -0.484698 0.097970 -0.738658
v -0.485100 0.112930 -0.767178
v -0.505397 0.119734 -0.784189
v -0.485407 0.120130 -0.784075
v -0.531800 -0.004404 -0.794846
v -0.564692 0.021678 -0.800934
v -0.570874 0.042859 -0.800153
v -0.561842 0.025680 -0.817248
v -0.564024 0.042031 -0.820433
v -0.544491 0.005572 -0.801955
v -0.545429 0.018281 -0.824781
v -0.546399 0.040007 -0.837396
v -0.534381 0.048513 -0.850940
v -0.515549 -0.006868 -0.802236
v -0.507424 -0.004485 -0.820450
v -0.484767 -0.008356 -0.801332
v -0.483569 -0.006412 -0.822188
v -0.527871 -0.001506 -0.813818
v -0.518987 0.008419 -0.834268
v -0.529887 0.027220 -0.846437
v -0.485057 0.002626 -0.838943
v -0.509157 0.020585 -0.852859
v -0.517276 0.040042 -0.858319
v -0.483930 0.018116 -0.857717
v -0.484984 0.041951 -0.868214
v -0.567961 0.072943 -0.801677
v -0.562621 0.088975 -0.794624
v -0.564259 0.064628 -0.819914
v -0.559669 0.084823 -0.813556
v -0.548964 0.098762 -0.802886
v -0.551594 0.073467 -0.832117
v -0.539387 0.096109 -0.831641
v -0.535143 0.072192 -0.850910
v -0.532219 0.090266 -0.848763
v -0.524976 0.114775 -0.802268
v -0.516091 0.111778 -0.832878
v -0.484861 0.115297 -0.840679
v -0.508495 0.121325 -0.802295
v -0.505882 0.120312 -0.822834
v -0.485528 0.121980 -0.802739
v -0.485033 0.121247 -0.825256
v -0.514908 0.071616 -0.860902
v -0.514430 0.096009 -0.853165
v -0.484604 0.072561 -0.868067
v -0.484604 0.099344 -0.857466
v -0.445072 0.052941 -0.692300
v -0.453446 0.020352 -0.715686
v -0.453528 0.044021 -0.699778
v -0.433524 0.052941 -0.692973
v -0.423464 0.022611 -0.718064
v -0.424219 0.044289 -0.703088
v -0.455082 -0.006314 -0.781164
v -0.437190 -0.005047 -0.785110
v -0.453238 0.006396 -0.739198
v -0.453560 -0.002400 -0.763966
v -0.422322 0.010802 -0.740847
v -0.424438 0.000862 -0.772629
v -0.403144 0.025886 -0.722967
v -0.399370 0.043353 -0.716978
v -0.392830 0.021274 -0.742100
v -0.383725 0.042943 -0.734139
v -0.392563 0.012648 -0.771032
v -0.376114 0.026446 -0.752973
v -0.372403 0.042348 -0.749499
v -0.373655 0.024057 -0.772186
v -0.367139 0.043296 -0.771645
v -0.445072 0.062197 -0.692675
v -0.453539 0.070653 -0.701778
v -0.452163 0.091035 -0.717962
v -0.433524 0.062197 -0.692968
v -0.424300 0.070469 -0.703290
v -0.423599 0.090944 -0.718383
v -0.453637 0.102060 -0.740418
v -0.456041 0.113232 -0.773320
v -0.422787 0.100733 -0.740293
v -0.421996 0.107386 -0.770907
v -0.468894 0.119180 -0.786196
v -0.399847 0.071284 -0.717658
v -0.404869 0.088443 -0.722598
v -0.383640 0.073186 -0.738677
v -0.398428 0.092514 -0.740696
v -0.378218 0.083891 -0.760222
v -0.390295 0.096067 -0.770739
v -0.372936 0.064260 -0.750135
v -0.369828 0.072701 -0.771620
v -0.375609 0.088120 -0.781297
v -0.454953 -0.007456 -0.801778
v -0.454987 -0.006025 -0.821632
v -0.435999 -0.005574 -0.801955
v -0.436738 -0.004888 -0.819001
v -0.453504 0.001272 -0.838287
v -0.419270 -0.000030 -0.801913
v -0.423891 0.003073 -0.831185
v -0.453238 0.017036 -0.859408
v -0.452846 0.041941 -0.871993
v -0.422539 0.017609 -0.859340
v -0.420374 0.040862 -0.872965
v -0.391500 0.011808 -0.801983
v -0.390072 0.016872 -0.833271
v -0.379153 0.029130 -0.845259
v -0.373071 0.023815 -0.800766
v -0.365133 0.042759 -0.801983
v -0.374526 0.025318 -0.824012
v -0.369152 0.040994 -0.832957
v -0.398592 0.021912 -0.856208
v -0.390758 0.039805 -0.862939
v -0.373926 0.047481 -0.852998
v -0.449900 0.115990 -0.802293
v -0.454522 0.113988 -0.832857
v -0.421499 0.109434 -0.801849
v -0.421857 0.105643 -0.832207
v -0.466561 0.120338 -0.802590
v -0.466615 0.120090 -0.822242
v -0.453238 0.072351 -0.870223
v -0.453339 0.098308 -0.856910
v -0.421364 0.071737 -0.869462
v -0.422986 0.094429 -0.855806
v -0.391968 0.098636 -0.801736
v -0.380548 0.083125 -0.841676
v -0.391247 0.094613 -0.831103
v -0.366841 0.071385 -0.801736
v -0.374921 0.088640 -0.801660
v -0.370000 0.072108 -0.831279
v -0.375803 0.087620 -0.821342
v -0.390990 0.072271 -0.859375
v -0.399881 0.090057 -0.851857
v -0.373783 0.064866 -0.851703
vn -0.4848 -0.5969 0.6392
vn -0.5848 -0.1966 0.7870
vn -0.6892 -0.4815 0.5414
vn -0.5589 -0.7568 0.3389
vn -0.8058 -0.5644 0.1794
vn -0.9426 -0.1814 0.2803
vn -0.7804 -0.0513 0.6232
vn -0.3909 -0.5559 0.7336
vn -0.1564 -0.6560 0.7384
vn -0.2627 -0.1491 0.9533
vn -0.4947 -0.1127 0.8617
vn -0.3824 -0.6902 0.6143
vn -0.2490 -0.8757 0.4136
vn -0.0403 -0.9406 0.3372
vn -0.0895 -0.8713 0.4826
vn -0.5807 -0.1262 0.8043
vn -0.1478 -0.9698 0.1942
vn -0.0088 -0.9887 0.1496
vn -0.4088 -0.8921 0.1925
vn -0.5497 0.3493 0.7588
vn -0.4395 0.6553 0.6143
vn -0.5291 0.7710 0.3544
vn -0.6546 0.5343 0.5348
vn -0.9169 0.2854 0.2789
vn -0.7716 0.6019 0.2059
vn -0.7648 0.2050 0.6108
vn -0.4716 0.4085 0.7815
vn -0.3473 0.6230 0.7009
vn -0.1807 0.8244 0.5365
vn -0.3157 0.7333 0.6021
vn -0.0536 0.9004 0.4317
vn -0.3173 0.8734 0.3694
vn -0.3136 0.4095 0.8567
vn -0.2112 0.7318 0.6480
vn -0.4627 0.2864 0.8390
vn 0.0107 0.9643 0.2645
vn -0.1890 0.9434 0.2725
vn -0.8174 -0.5594 -0.1378
vn -0.9907 -0.0836 -0.1070
vn -0.8383 -0.1335 -0.5286
vn -0.7461 -0.4703 -0.4713
vn -0.6551 -0.2391 -0.7168
vn -0.5718 -0.6073 -0.5516
vn -0.5653 -0.8048 -0.1809
vn -0.1756 -0.9766 -0.1242
vn -0.1660 -0.9193 -0.3568
vn -0.0532 -0.9518 -0.3022
vn -0.0134 -0.9995 -0.0269
vn -0.3787 -0.2475 -0.8918
vn -0.1725 -0.2006 -0.9644
vn -0.1422 -0.6048 -0.7835
vn -0.2874 -0.5746 -0.7663
vn -0.5120 -0.4683 -0.7202
vn -0.3615 -0.7318 -0.5777
vn -0.3967 -0.8386 -0.3733
vn -0.1093 -0.8231 -0.5573
vn -0.4057 -0.9131 -0.0405
vn -0.5894 -0.1168 -0.7994
vn -0.7797 0.4974 -0.3804
vn -0.6216 0.7743 -0.1181
vn -0.6326 0.6352 -0.4430
vn -0.7699 0.2449 -0.5892
vn -0.7929 0.6083 -0.0350
vn -0.9515 0.2609 -0.1632
vn -0.8587 0.1333 -0.4948
vn 0.0223 0.9993 0.0293
vn -0.0001 0.9712 -0.2384
vn -0.2285 0.9451 -0.2336
vn -0.2513 0.9677 0.0218
vn -0.3151 0.5427 -0.7785
vn -0.0790 0.5937 -0.8008
vn -0.1436 0.1931 -0.9706
vn -0.3165 0.1282 -0.9399
vn -0.4861 0.8738 -0.0101
vn -0.3761 0.8237 -0.4243
vn -0.5526 0.4546 -0.6985
vn -0.6057 0.1307 -0.7849
vn -0.0348 0.8431 -0.5366
vn 0.0240 -0.7109 0.7028
vn 0.2267 -0.7115 0.6651
vn 0.3773 -0.3524 0.8565
vn -0.1841 -0.3429 0.9211
vn -0.2622 -0.2745 0.9252
vn 0.3514 -0.2958 0.8883
vn 0.0850 -0.9014 0.4246
vn 0.1088 -0.9530 0.2827
vn 0.2766 -0.9410 0.1948
vn 0.2327 -0.9001 0.3685
vn 0.7670 -0.6293 0.1248
vn 0.9835 -0.1253 0.1305
vn 0.8836 -0.1564 0.4414
vn 0.7279 -0.5803 0.3652
vn 0.5135 -0.7365 0.4403
vn 0.7518 -0.1828 0.6335
vn 0.4242 -0.8930 0.1504
vn 0.4697 -0.6327 0.6157
vn 0.6119 -0.2110 0.7623
vn 0.0839 -0.9862 0.1426
vn 0.2025 -0.9713 0.1250
vn -0.2236 0.4555 0.8617
vn 0.3560 0.3928 0.8479
vn 0.1774 0.7528 0.6339
vn -0.0657 0.7649 0.6408
vn 0.3375 0.3391 0.8782
vn -0.2767 0.3476 0.8959
vn 0.1776 0.9323 0.3151
vn 0.2369 0.9581 0.1610
vn 0.1188 0.9593 0.2562
vn 0.0003 0.9221 0.3870
vn 0.7455 0.5874 0.3149
vn 0.5060 0.8440 0.1777
vn 0.5088 0.7817 0.3606
vn 0.7785 0.3557 0.5171
vn 0.9309 0.3160 0.1833
vn 0.7427 0.6612 0.1060
vn 0.8946 0.1873 0.4058
vn 0.6205 0.2642 0.7384
vn 0.4724 0.6645 0.5791
vn 0.0573 -0.9983 -0.0099
vn 0.0599 -0.9642 -0.2584
vn 0.2117 -0.9547 -0.2090
vn 0.2268 -0.9738 -0.0142
vn -0.0499 -0.2002 -0.9785
vn 0.1441 -0.1930 -0.9706
vn 0.1531 -0.7081 -0.6893
vn -0.0120 -0.6574 -0.7534
vn 0.7553 -0.6363 -0.1570
vn 0.9334 -0.2650 -0.2421
vn 0.9880 -0.1528 -0.0233
vn 0.7700 -0.6374 -0.0276
vn 0.6788 -0.5804 -0.4498
vn 0.4952 -0.8208 -0.2848
vn 0.4534 -0.8904 -0.0397
vn 0.3646 -0.9307 -0.0312
vn 0.2582 -0.9102 -0.3239
vn 0.4719 -0.2688 -0.8397
vn 0.3652 -0.7008 -0.6128
vn 0.0474 -0.8640 -0.5013
vn 0.7891 -0.1269 -0.6010
vn 0.2781 0.9604 -0.0166
vn 0.2648 0.9235 -0.2776
vn 0.1970 0.9154 -0.3511
vn 0.2521 0.9677 0.0107
vn 0.0889 0.6642 -0.7423
vn 0.1983 0.7089 -0.6769
vn 0.1610 0.2963 -0.9414
vn -0.0125 0.2591 -0.9658
vn 0.9104 0.3306 -0.2488
vn 0.7251 0.6704 -0.1575
vn 0.7401 0.6723 -0.0170
vn 0.9726 0.2320 -0.0141
vn 0.4689 0.8361 -0.2845
vn 0.6353 0.6258 -0.4525
vn 0.4151 0.9094 -0.0264
vn 0.3623 0.7109 -0.6028
vn 0.4544 0.3782 -0.8066
vn 0.7790 0.2364 -0.5808
vn 0.1854 0.9684 -0.1670
vn 0.1922 0.9808 0.0328
vn 0.1494 0.9667 0.2078
vt 0.110817 0.746101
vt 0.096574 0.717434
vt 0.124958 0.718491
vt 0.140967 0.747814
vt 0.152652 0.721894
vt 0.139354 0.696828
vt 0.112105 0.692046
vt 0.069443 0.784871
vt 0.063550 0.812690
vt 0.028940 0.805840
vt 0.047860 0.767096
vt 0.096007 0.775804
vt 0.129129 0.784331
vt 0.122225 0.818885
vt 0.096880 0.816132
vt 0.064312 0.744812
vt 0.146637 0.787246
vt 0.139917 0.820554
vt 0.154801 0.771200
vt 0.395339 0.710997
vt 0.391719 0.734355
vt 0.371038 0.736049
vt 0.375136 0.717108
vt 0.360979 0.706482
vt 0.355923 0.725720
vt 0.379383 0.693766
vt 0.427295 0.732187
vt 0.435653 0.760069
vt 0.424727 0.776885
vt 0.405226 0.751443
vt 0.394838 0.788888
vt 0.381150 0.764733
vt 0.458619 0.762654
vt 0.445687 0.780807
vt 0.448828 0.732856
vt 0.381224 0.793992
vt 0.375013 0.777387
vt 0.181063 0.725976
vt 0.188298 0.697465
vt 0.215463 0.711782
vt 0.201172 0.729478
vt 0.239565 0.742519
vt 0.207605 0.751526
vt 0.177084 0.757689
vt 0.172769 0.788945
vt 0.190000 0.800215
vt 0.191400 0.824177
vt 0.168644 0.822890
vt 0.255478 0.785202
vt 0.264188 0.823535
vt 0.236337 0.824983
vt 0.235954 0.797055
vt 0.236189 0.771598
vt 0.210823 0.786652
vt 0.185363 0.778325
vt 0.209966 0.824728
vt 0.164620 0.772572
vt 0.262876 0.760150
vt 0.329026 0.737134
vt 0.344982 0.747144
vt 0.323700 0.763557
vt 0.307978 0.744856
vt 0.346379 0.729988
vt 0.332024 0.720215
vt 0.310603 0.724360
vt 0.367370 0.799140
vt 0.348705 0.805363
vt 0.345254 0.788517
vt 0.360175 0.780244
vt 0.314201 0.788675
vt 0.320503 0.813450
vt 0.294050 0.819138
vt 0.291875 0.789489
vt 0.355462 0.768460
vt 0.334168 0.783491
vt 0.310930 0.773539
vt 0.295232 0.768325
vt 0.336923 0.809053
vt 0.057970 0.852149
vt 0.060063 0.892496
vt 0.024006 0.896207
vt 0.018978 0.849010
vt 0.502225 0.798078
vt 0.515797 0.781924
vt 0.523239 0.828680
vt 0.504726 0.811471
vt 0.093463 0.853493
vt 0.125421 0.854910
vt 0.133044 0.888565
vt 0.090756 0.891772
vt 0.125680 0.957923
vt 0.121024 0.984768
vt 0.089269 0.973010
vt 0.103818 0.954821
vt 0.089758 0.931546
vt 0.066535 0.957598
vt 0.127705 0.931402
vt 0.064060 0.917287
vt 0.044167 0.933061
vt 0.143581 0.855601
vt 0.147815 0.874400
vt 0.479231 0.792112
vt 0.484335 0.826573
vt 0.459467 0.830320
vt 0.453458 0.801053
vt 0.495604 0.811940
vt 0.494136 0.800570
vt 0.438207 0.835439
vt 0.410030 0.842907
vt 0.398235 0.814091
vt 0.430776 0.807044
vt 0.434145 0.885698
vt 0.419430 0.874411
vt 0.446031 0.857555
vt 0.460570 0.878983
vt 0.430254 0.903537
vt 0.413912 0.892142
vt 0.458090 0.898575
vt 0.477698 0.855277
vt 0.460852 0.847389
vt 0.167023 0.856573
vt 0.189391 0.857284
vt 0.185776 0.876005
vt 0.166488 0.876079
vt 0.269295 0.856082
vt 0.276687 0.899275
vt 0.239651 0.894130
vt 0.237402 0.858304
vt 0.195819 0.960001
vt 0.211794 0.979880
vt 0.165897 0.989086
vt 0.165721 0.960716
vt 0.225321 0.957041
vt 0.207477 0.937635
vt 0.166136 0.932521
vt 0.166171 0.894589
vt 0.199909 0.890581
vt 0.261122 0.938867
vt 0.237402 0.925251
vt 0.207747 0.858084
vt 0.328055 0.966981
vt 0.300916 0.933788
vt 0.335313 0.936324
vt 0.355177 0.958723
vt 0.383037 0.850268
vt 0.356616 0.857966
vt 0.349957 0.830539
vt 0.376289 0.826293
vt 0.326661 0.839010
vt 0.334489 0.865677
vt 0.310776 0.876947
vt 0.300411 0.847786
vt 0.366641 0.916437
vt 0.377074 0.900237
vt 0.394663 0.897035
vt 0.398562 0.916455
vt 0.364064 0.887546
vt 0.357137 0.901840
vt 0.390635 0.879307
vt 0.342913 0.884404
vt 0.333149 0.902384
vt 0.343905 0.920726
vt 0.355770 0.819050
vt 0.372147 0.813376
vt 0.383809 0.807026
vt 0.380690 0.678744
vt 0.358222 0.665983
vt 0.407630 0.670827
vt 0.468560 0.706632
vt 0.498948 0.739818
vt 0.445994 0.689496
vt 0.311579 0.683070
vt 0.288623 0.703663
vt 0.262983 0.732720
vt 0.450318 0.943891
vt 0.479477 0.922017
vt 0.498978 0.900748
vt 0.513890 0.870628
vt 0.404395 0.957340
s 1
usemtl SmallRiverRocks
f 5/1/1 6/2/2 8/3/3 7/4/4
f 3/5/5 7/4/4 8/3/3 4/6/6
f 2/7/7 4/6/6 8/3/3 6/2/2
f 9/8/8 11/9/9 12/10/10 10/11/11
f 15/12/12 17/13/13 19/14/14 18/15/15
f 5/1/1 15/12/12 16/16/16 6/2/2
f 5/1/1 7/4/4 17/13/13 15/12/12
f 9/8/8 10/11/11 16/16/16 15/12/12
f 9/8/8 15/12/12 18/15/15 11/9/9
f 13/17/17 14/18/18 19/14/14 17/13/13
f 1/19/19 13/17/17 17/13/13 7/4/4
f 23/20/20 24/21/21 26/22/22 25/23/23
f 21/24/24 25/23/23 26/22/22 22/25/25
f 23/20/20 25/23/23 21/24/24 20/26/26
f 30/27/27 33/28/28 34/29/29 31/30/30
f 34/29/29 35/31/31 32/32/32 31/30/30
f 23/20/20 30/27/27 31/30/30 24/21/21
f 31/30/30 32/32/32 26/22/22 24/21/21
f 28/33/33 29/34/34 34/29/29 33/28/28
f 28/33/33 33/28/28 30/27/27 27/35/35
f 32/32/32 35/31/31 37/36/36 36/37/37
f 39/38/38 40/39/39 42/40/40 41/41/41
f 42/40/40 45/42/42 44/43/43 41/41/41
f 39/38/38 41/41/41 44/43/43 43/44/44
f 47/45/45 48/46/46 50/47/47 49/48/48
f 56/49/49 58/50/50 57/51/51 55/52/52
f 45/42/42 53/53/53 52/54/54 44/43/43
f 43/44/44 44/43/43 52/54/54 51/55/55
f 52/54/54 53/53/53 56/49/49 55/52/52
f 52/54/54 55/52/52 57/51/51 54/56/56
f 47/45/45 51/55/55 52/54/54 48/46/46
f 52/54/54 54/56/56 50/47/47 48/46/46
f 43/44/44 51/55/55 47/45/45 38/57/57
f 45/42/42 46/58/58 56/49/49 53/53/53
f 62/59/59 63/60/60 65/61/61 64/62/62
f 60/63/63 63/60/60 62/59/59 59/64/64
f 62/59/59 64/62/62 61/65/65 59/64/64
f 73/66/66 74/67/67 72/68/68 71/69/69
f 76/70/70 78/71/71 77/72/72 75/73/73
f 68/74/74 69/75/75 65/61/61 63/60/60
f 67/76/76 76/70/70 75/73/73 66/77/77
f 64/62/62 65/61/61 67/76/76 66/77/77
f 70/78/78 78/71/71 76/70/70 69/75/75
f 68/74/74 71/69/69 72/68/68 69/75/75
f 72/68/68 74/67/67 70/78/78 69/75/75
f 69/75/75 76/70/70 67/76/76 65/61/61
f 80/79/79 83/80/80 84/81/81 81/82/82
f 79/83/83 81/84/82 84/85/81 82/86/84
f 87/87/85 88/88/86 90/89/87 89/90/88
f 98/91/89 99/92/90 97/93/91 96/94/92
f 93/95/93 96/94/92 97/93/91 94/96/94
f 93/95/93 95/97/95 98/91/89 96/94/92
f 83/80/80 91/98/96 92/99/97 84/81/81
f 89/90/88 90/89/87 95/97/95 93/95/93
f 80/79/79 87/87/85 89/90/88 83/80/80
f 93/95/93 94/96/94 92/99/97 91/98/96
f 85/100/98 86/101/99 90/89/87 88/88/86
f 83/80/80 89/90/88 93/95/93 91/98/96
f 101/102/100 104/103/101 105/104/102 102/105/103
f 103/106/104 104/103/101 101/102/100 100/107/105
f 108/108/106 109/109/107 107/110/108 106/111/109
f 115/112/110 116/113/111 114/114/112 113/115/113
f 115/112/110 118/116/114 119/117/115 116/113/111
f 117/118/116 118/116/114 115/112/110 113/115/113
f 104/103/101 111/119/117 112/120/118 105/104/102
f 114/114/112 116/113/111 109/109/107 108/108/106
f 105/104/102 108/108/106 106/111/109 102/105/103
f 113/115/113 114/114/112 112/120/118 111/119/117
f 112/120/118 114/114/112 108/108/106 105/104/102
f 120/121/119 121/122/120 123/123/121 122/124/122
f 128/125/123 130/126/124 129/127/125 127/128/126
f 136/129/127 137/130/128 135/131/129 134/132/130
f 133/133/131 137/130/128 136/129/127 132/134/132
f 131/135/133 132/134/132 136/129/127 134/132/130
f 125/136/134 126/137/135 132/134/132 131/135/133
f 130/126/124 139/138/136 138/139/137 129/127/125
f 124/140/138 127/128/126 129/127/125 126/137/135
f 138/139/137 139/138/136 133/133/131 132/134/132
f 133/141/131 139/142/136 140/143/139 137/144/128
f 123/123/121 126/137/135 125/136/134 122/124/122
f 124/140/138 126/137/135 123/123/121 121/122/120
f 126/137/135 129/127/125 138/139/137 132/134/132
f 143/145/140 144/146/141 142/147/142 141/148/143
f 148/149/144 150/150/145 149/151/146 147/152/147
f 156/153/148 157/154/149 155/155/150 154/156/151
f 153/157/152 157/154/149 156/153/148 152/158/153
f 155/155/150 157/154/149 153/157/152 151/159/154
f 151/159/154 153/157/152 144/146/141 143/145/140
f 150/150/145 159/160/155 158/161/156 149/151/146
f 144/146/141 150/150/145 148/149/144 142/147/142
f 158/161/156 159/160/155 153/157/152 152/158/153
f 156/153/148 160/162/157 158/161/156 152/158/153
f 142/147/142 146/163/158 145/164/159 141/148/143
f 153/157/152 159/160/155 150/150/145 144/146/141
f 11/9/9 80/79/79 81/82/82 12/10/10
f 18/15/15 19/14/14 88/88/86 87/87/85
f 14/18/18 85/100/98 88/88/86 19/14/14
f 11/9/9 18/15/15 87/87/85 80/79/79
f 28/33/33 101/102/100 102/105/103 29/34/34
f 106/111/109 107/110/108 35/31/31 34/29/29
f 35/31/31 107/110/108 110/165/160 37/36/36
f 102/105/103 106/111/109 34/29/29 29/34/34
f 49/48/48 50/47/47 121/122/120 120/121/119
f 58/50/50 128/125/123 127/128/126 57/51/51
f 54/56/56 124/140/138 121/122/120 50/47/47
f 54/56/56 57/51/51 127/128/126 124/140/138
f 145/164/159 146/163/158 74/67/67 73/66/66
f 78/71/71 148/149/144 147/152/147 77/72/72
f 74/67/67 146/163/158 142/147/142 70/78/78
f 142/147/142 148/149/144 78/71/71 70/78/78
f 13/17/17 47/45/45 49/48/48 14/18/18
f 3/5/5 4/6/6 40/39/39 39/38/38
f 3/5/5 39/38/38 43/44/44 7/4/4
f 1/19/19 7/4/4 43/44/44 38/57/57
f 1/19/19 38/57/57 47/45/45 13/17/17
f 85/100/98 120/121/119 122/124/122 86/101/99
f 134/132/130 135/131/129 99/92/90 98/91/89
f 95/97/95 131/135/133 134/132/130 98/91/89
f 122/124/122 125/136/134 90/89/87 86/101/99
f 90/89/87 125/136/134 131/135/133 95/97/95
f 21/24/24 22/25/25 60/63/63 59/64/64
f 26/22/22 63/60/60 60/63/63 22/25/25
f 37/36/36 73/66/66 71/69/69 36/37/37
f 32/32/32 36/37/37 71/69/69 68/74/74
f 32/32/32 68/74/74 63/60/60 26/22/22
f 109/109/107 143/145/140 141/148/143 107/110/108
f 154/156/151 155/155/150 119/117/115 118/116/114
f 119/117/115 155/155/150 151/159/154 116/113/111
f 141/148/143 145/164/159 110/165/160 107/110/108
f 116/113/111 151/159/154 143/145/140 109/109/107
f 2/166/7 20/26/26 21/24/24 4/167/6
f 2/166/7 6/168/2 23/20/20 20/26/26
f 10/169/11 12/170/10 28/33/33 27/35/35
f 10/169/11 27/35/35 30/27/27 16/171/16
f 6/168/2 16/171/16 30/27/27 23/20/20
f 40/172/39 59/64/64 61/65/65 42/173/40
f 61/65/65 64/62/62 45/174/42 42/173/40
f 75/73/73 77/72/72 58/50/50 56/49/49
f 45/174/42 64/62/62 66/77/77 46/58/58
f 66/77/77 75/73/73 56/49/49 46/58/58
f 79/83/83 100/107/105 101/102/100 81/84/82
f 84/85/81 104/103/101 103/106/104 82/86/84
f 79/83/83 82/86/84 103/106/104 100/107/105
f 99/175/90 118/116/114 117/118/116 97/176/91
f 94/177/94 97/176/91 117/118/116 113/115/113
f 94/177/94 113/115/113 111/119/117 92/178/97
f 84/85/81 92/178/97 111/119/117 104/103/101
f 147/152/147 149/151/146 130/126/124 128/125/123
f 137/144/128 156/153/148 154/156/151 135/179/129
f 158/161/156 160/162/157 140/143/139 139/142/136
f 140/143/139 160/162/157 156/153/148 137/144/128
f 149/151/146 158/161/156 139/142/136 130/126/124
f 4/167/6 21/24/24 59/64/64 40/172/39
f 135/179/129 154/156/151 118/116/114 99/175/90
f 12/170/10 81/84/82 101/102/100 28/33/33
f 77/72/72 147/152/147 128/125/123 58/50/50
f 14/18/18 49/48/48 120/121/119 85/100/98
f 110/165/160 145/164/159 73/66/66 37/36/36
